<svg width="20" height="20" viewBox="0 0 20 20" fill="none" xmlns="http://www.w3.org/2000/svg">
<g id="Ai-Sparkles--Streamline-Flex-Gradient.svg" clip-path="url(#clip0_64_378)">
<g id="ai-sparkles--artificial-intelligence-ai-sparks-sparkles">
<path id="Union" fill-rule="evenodd" clip-rule="evenodd" d="M6.42944 0.977896C5.77879 0.149946 4.53713 0.149946 3.88647 0.977896C3.65004 1.27876 3.4859 1.5889 3.35419 1.83778C3.32927 1.88485 3.30547 1.92985 3.2826 1.97206C3.1334 2.24752 2.98681 2.48633 2.73663 2.7365C2.48646 2.98669 2.24764 3.13328 1.97219 3.28248C1.92994 3.30536 1.88501 3.32913 1.8379 3.35406C1.58903 3.48578 1.27888 3.64992 0.978019 3.88635C0.150069 4.537 0.150067 5.77866 0.978019 6.42932C1.27888 6.66575 1.589 6.82989 1.83787 6.9616C1.88497 6.98653 1.92991 7.01032 1.97214 7.03319C2.2476 7.18239 2.48641 7.32899 2.73659 7.57916C2.98676 7.82933 3.13336 8.06815 3.28256 8.3436C3.30541 8.38581 3.32916 8.43068 3.35406 8.47773C3.48577 8.7266 3.64999 9.0369 3.88643 9.33778C4.53707 10.1657 5.77874 10.1657 6.42939 9.33778C6.66583 9.0369 6.82997 8.72676 6.96167 8.47788C6.98654 8.43089 7.01043 8.38576 7.03326 8.3436C7.18246 8.06815 7.32906 7.82933 7.57923 7.57916C7.82941 7.32899 8.06821 7.18239 8.34369 7.03319C8.38593 7.0103 8.43084 6.98653 8.47796 6.9616C8.72683 6.82989 9.03697 6.66576 9.33784 6.42932C10.1658 5.77866 10.1658 4.537 9.33784 3.88635C9.03699 3.64992 8.72686 3.48579 8.47799 3.35408C8.4309 3.32916 8.38593 3.30535 8.34371 3.28248C8.06826 3.13328 7.82946 2.98669 7.57929 2.7365C7.3291 2.48633 7.18251 2.24752 7.03331 1.97206C7.01044 1.92983 6.98669 1.88493 6.96176 1.83785C6.83004 1.58896 6.66589 1.27876 6.42944 0.977896ZM11.4149 7.14538C12.2295 6.1089 13.7814 6.1089 14.5959 7.14538C14.919 7.55658 15.1416 7.9766 15.3329 8.33769C15.37 8.40779 15.406 8.47568 15.4413 8.54083C15.6639 8.9517 15.8936 9.32865 16.2879 9.7229C16.6821 10.1172 17.059 10.3469 17.4699 10.5695C17.535 10.6048 17.6029 10.6407 17.6729 10.6778C18.034 10.8691 18.4541 11.0917 18.8653 11.4149C19.9017 12.2294 19.9017 13.7813 18.8653 14.5958C18.4541 14.9189 18.034 15.1415 17.673 15.3328C17.6029 15.3699 17.535 15.4059 17.4699 15.4412C17.059 15.6638 16.682 15.8935 16.2877 16.2878C15.8936 16.6821 15.6637 17.0589 15.4411 17.4698C15.406 17.5349 15.37 17.6026 15.333 17.6726C15.1416 18.0338 14.919 18.4541 14.5959 18.8654C13.7813 19.9018 12.2294 19.9018 11.4149 18.8654C11.0917 18.4541 10.8692 18.0341 10.6779 17.6729C10.6408 17.6029 10.6048 17.5351 10.5695 17.4698C10.3469 17.0589 10.1172 16.6821 9.7229 16.2878C9.32864 15.8935 8.95171 15.6638 8.54086 15.4412C8.4757 15.4059 8.40781 15.3699 8.33771 15.3328C7.97664 15.1415 7.55663 14.9189 7.14544 14.5958C6.10897 13.7813 6.10897 12.2294 7.14544 11.4149C7.55663 11.0917 7.97667 10.8692 8.33776 10.6779C8.40784 10.6408 8.47576 10.6048 8.5409 10.5695C8.95177 10.3469 9.32871 10.1172 9.72297 9.7229C10.1172 9.32865 10.347 8.9517 10.5696 8.54083C10.6048 8.47572 10.6408 8.40789 10.6779 8.33785C10.8692 7.97676 11.0918 7.55656 11.4149 7.14538Z" fill="url(#paint0_linear_64_378)"/>
</g>
</g>
<defs>
<linearGradient id="paint0_linear_64_378" x1="0.357056" y1="0.356934" x2="23.6103" y2="9.14968" gradientUnits="userSpaceOnUse">
<stop offset="0.158668" stop-color="#F76A4B"/>
<stop offset="0.60652" stop-color="#A24AE7"/>
<stop offset="0.891362" stop-color="#4859F3"/>
</linearGradient>
<clipPath id="clip0_64_378">
<rect width="20" height="20" fill="white"/>
</clipPath>
</defs>
</svg>
