<svg width="24" height="24" viewBox="0 0 24 24" fill="none" xmlns="http://www.w3.org/2000/svg">
<g id="Hotel-Bed-5--Streamline-Plump.svg">
<g id="hotel-bed-5--bed-bedrooms-beds-bedroom-bunk-hotel">
<g id="Union">
<path id="Vector" d="M3.34787 4.60328C3.32167 4.00083 2.96832 3.50853 2.36697 3.46468C2.21572 3.45403 2.04252 3.44708 1.84367 3.44708C1.64482 3.44708 1.47162 3.45348 1.32032 3.46468C0.718971 3.50853 0.365621 4.00083 0.339421 4.60328C0.294021 5.64833 0.240021 7.77848 0.240021 11.9998C0.240021 16.2206 0.294021 18.3513 0.339421 19.3963C0.365621 19.9987 0.718971 20.491 1.32032 20.5349C1.47162 20.5456 1.64482 20.5525 1.84367 20.5525C2.04252 20.5525 2.21572 20.5456 2.36697 20.5349C2.96832 20.491 3.32167 19.9987 3.34787 19.3963C3.37192 18.8462 3.39812 17.9958 3.41737 16.6979C3.44887 16.7011 3.47987 16.7032 3.51197 16.7043C4.62062 16.7508 7.01377 16.8107 12 16.8107C16.9863 16.8107 19.3794 16.7514 20.4886 16.7043C20.5191 16.7032 20.5495 16.7011 20.5795 16.6979C20.5993 17.9958 20.6254 18.8457 20.649 19.3958C20.6757 19.9982 21.0285 20.491 21.6304 20.5343C21.9788 20.5592 22.3286 20.5593 22.677 20.5349C23.2784 20.491 23.6317 19.9982 23.6579 19.3958C23.6921 18.6003 23.7317 17.1753 23.7488 14.6773C23.7524 14.0853 23.2734 13.6034 22.6813 13.6034H20.5528V13.6943C20.3819 13.6341 20.202 13.6033 20.0209 13.6034H12C7.01377 13.6034 4.62062 13.6628 3.51142 13.7098C3.48897 13.7106 3.46652 13.7118 3.44407 13.7135C3.44622 13.1843 3.44727 12.6145 3.44727 11.9998C3.44727 7.77903 3.39332 5.64833 3.34787 4.60328Z" fill="#B9B9B9"/>
<path id="Vector_2" d="M10.514 6.39929C10.584 5.66694 11.1843 5.11634 11.9198 5.08589C14.5252 4.97739 16.9366 5.13454 18.8941 5.36279C21.7876 5.70064 23.76 8.24239 23.76 11.1556V11.4651C23.76 12.0556 23.2814 12.5342 22.6909 12.5342H11.5697C11.0491 12.5342 10.6075 12.16 10.5503 11.6426C10.4485 10.7138 10.3971 9.78024 10.3964 8.84589C10.3964 7.88904 10.4525 7.04074 10.514 6.39929Z" fill="#B9B9B9"/>
<path id="Vector_3" d="M9.32723 10.1288C9.32723 11.9805 7.32273 13.1378 5.71908 12.212C4.97483 11.7823 4.51633 10.9882 4.51633 10.1288C4.51633 8.27707 6.52088 7.11972 8.12453 8.04557C8.86878 8.47527 9.32723 9.26937 9.32723 10.1288Z" fill="#B9B9B9"/>
</g>
</g>
</g>
</svg>
