<svg width="24" height="24" viewBox="0 0 24 24" fill="none" xmlns="http://www.w3.org/2000/svg">
<g id="Binoculars--Streamline-Plump.svg" clip-path="url(#clip0_14_73)">
<g id="binoculars--binocular-binoculars-view-zoom">
<path id="Subtract" fill-rule="evenodd" clip-rule="evenodd" d="M7.25 0.750011C5.58165 0.750011 4.58425 1.3452 4.06218 1.82564C3.71712 2.14318 3.52728 2.53723 3.40805 2.87393C2.92069 4.25015 2.2504 7.17661 1.64884 10.1973C1.13873 12.7588 0.66781 15.441 0.389536 17.3993C0.298435 17.7505 0.25 18.1187 0.25 18.5C0.25 21.204 2.68599 23.25 5.5 23.25C8.30455 23.25 10.7337 21.2177 10.7499 18.5272C10.9045 16.2912 11.0113 13.9273 11.0851 11.7281C9.8899 11.8426 8.76645 12.1814 7.89475 12.721C7.54255 12.939 7.0803 12.8302 6.8623 12.478C6.6443 12.1259 6.75305 11.6636 7.10525 11.4456C8.48785 10.5897 10.2646 10.1846 12 10.1846C13.7354 10.1846 15.5121 10.5897 16.8947 11.4456C17.247 11.6636 17.3557 12.1259 17.1377 12.478C16.9197 12.8302 16.4574 12.939 16.1052 12.721C15.2335 12.1814 14.1101 11.8426 12.9149 11.7281C12.9887 13.9273 13.0955 16.2912 13.2501 18.5272C13.2663 21.2177 15.6954 23.25 18.5 23.25C21.314 23.25 23.75 21.204 23.75 18.5C23.75 18.1187 23.7015 17.7505 23.6104 17.3993C23.3322 15.441 22.8612 12.7588 22.3511 10.1973C21.7496 7.17661 21.0793 4.25015 20.5919 2.87393C20.4727 2.53723 20.2829 2.14318 19.9378 1.82564C19.4157 1.3452 18.4183 0.750011 16.75 0.750011C15.5411 0.750011 14.6297 1.06231 13.997 1.40599C13.0409 1.92531 12.749 2.95609 12.7548 3.79251C12.7577 4.19277 12.7622 4.69374 12.7693 5.27611C12.5264 5.25921 12.2701 5.25001 12 5.25001C11.7299 5.25001 11.4735 5.25921 11.2306 5.27611C11.2378 4.69374 11.2423 4.19277 11.2451 3.79251C11.251 2.95609 10.959 1.92531 10.003 1.40599C9.37035 1.06231 8.45885 0.750011 7.25 0.750011ZM18.5 21.25C16.8431 21.25 15.5 20.0188 15.5 18.5C15.5 16.9812 16.8431 15.75 18.5 15.75C20.1568 15.75 21.5 16.9812 21.5 18.5C21.5 20.0188 20.1568 21.25 18.5 21.25ZM8.5 18.5C8.5 20.0188 7.15685 21.25 5.5 21.25C3.84314 21.25 2.5 20.0188 2.5 18.5C2.5 16.9812 3.84314 15.75 5.5 15.75C7.15685 15.75 8.5 16.9812 8.5 18.5Z" fill="#B9B9B9"/>
</g>
</g>
<defs>
<clipPath id="clip0_14_73">
<rect width="24" height="24" fill="white"/>
</clipPath>
</defs>
</svg>
