<svg width="25" height="24" viewBox="0 0 25 24" xmlns="http://www.w3.org/2000/svg">
<g id="Burger--Streamline-Plump.svg">
<g id="burger--burger-fast-cook-cooking-nutrition-food">
<path id="Union" fill-rule="evenodd" clip-rule="evenodd" d="M12.75 1.25011C11.4414 1.25011 10.2992 1.2718 9.30894 1.30657C5.67959 1.43401 2.74999 4.25331 2.74999 7.93761C2.74999 8.80101 2.84676 9.54661 2.95289 10.1054C3.13678 11.0737 3.90845 11.7606 4.85699 11.8859C6.07684 12.0471 8.46214 12.2501 12.75 12.2501C17.0378 12.2501 19.4231 12.0471 20.643 11.8859C21.5915 11.7606 22.3632 11.0737 22.5471 10.1054C22.6532 9.54661 22.75 8.80096 22.75 7.93761C22.75 4.25331 19.8204 1.43401 16.191 1.30657C15.2008 1.2718 14.0586 1.25011 12.75 1.25011ZM18.25 7.50011C18.25 7.08591 18.5858 6.75011 19 6.75011H19.25C19.6642 6.75011 20 7.08591 20 7.50011C20 7.91431 19.6642 8.25011 19.25 8.25011H19C18.5858 8.25011 18.25 7.91431 18.25 7.50011ZM16 4.75011C15.5858 4.75011 15.25 5.08591 15.25 5.50011C15.25 5.91431 15.5858 6.25011 16 6.25011H16.25C16.6642 6.25011 17 5.91431 17 5.50011C17 5.08591 16.6642 4.75011 16.25 4.75011H16ZM16.5 9.00011C16.5 8.58591 16.1642 8.25011 15.75 8.25011H15.5C15.0858 8.25011 14.75 8.58591 14.75 9.00011C14.75 9.41431 15.0858 9.75011 15.5 9.75011H15.75C16.1642 9.75011 16.5 9.41431 16.5 9.00011ZM20.2494 13.1924C18.8587 13.3449 16.5199 13.5003 12.75 13.5003C8.98009 13.5003 6.64124 13.3449 5.2506 13.1924C4.08213 13.0643 3.01335 12.4619 2.33481 11.5192C2.29628 11.5341 2.25801 11.5502 2.22012 11.5675C1.84367 11.7402 1.46888 12.0607 1.33005 12.5933C1.27877 12.79 1.24999 13.0086 1.24999 13.2503C1.24999 13.4921 1.27877 13.7107 1.33005 13.9074C1.46888 14.4399 1.84367 14.7605 2.22012 14.9331C2.57769 15.0971 2.96968 15.1473 3.28703 15.1572C4.48069 15.1946 7.15579 15.2503 12.5 15.2503C17.6501 15.2503 20.3214 15.1986 21.5768 15.1614C21.9455 15.1505 22.3903 15.0865 22.7853 14.8925C23.201 14.6884 23.5996 14.3147 23.7091 13.7154C23.7355 13.5705 23.75 13.4155 23.75 13.2503C23.75 13.0851 23.7355 12.9302 23.7091 12.7853C23.6188 12.2911 23.3319 11.9503 23.001 11.7315C22.3208 12.5522 21.3275 13.0742 20.2494 13.1924ZM12.5 16.5001C7.14849 16.5001 4.4593 16.4443 3.24791 16.4064C2.84874 16.3939 2.26981 16.3308 1.6991 16.0691L1.67421 16.0576L1.67003 16.0607C1.52854 16.1682 1.1957 16.4845 1.25758 17.0098C1.31341 17.4837 1.56069 17.8445 1.90968 18.0764C2.22544 18.2863 2.59233 18.3711 2.90334 18.4098C3.39481 18.4708 3.97383 18.4357 4.40101 18.4098C4.50053 18.4038 4.59182 18.3982 4.67183 18.3945C5.15898 18.372 5.54464 18.4242 5.76424 18.538C7.59579 19.4874 9.52734 19.4874 11.3589 18.538C12.1532 18.1263 12.8476 18.1263 13.6419 18.538C15.4734 19.4874 17.405 19.4874 19.2365 18.538C19.4562 18.4242 19.8418 18.372 20.3289 18.3945C20.4089 18.3982 20.5002 18.4038 20.5997 18.4098C21.0269 18.4357 21.606 18.4708 22.0975 18.4098C22.4085 18.3711 22.7754 18.2863 23.0911 18.0764C23.4401 17.8444 23.6874 17.4836 23.7432 17.0098C23.797 16.5531 23.5478 16.2487 23.3959 16.1142C23.3626 16.0847 23.3277 16.0582 23.2937 16.0348C22.6905 16.3206 22.0669 16.3972 21.6139 16.4106C20.3419 16.4483 17.6573 16.5001 12.5 16.5001ZM4.72954 19.6431C4.90874 19.6348 5.05142 19.6405 5.1532 19.6541C5.18895 19.6588 5.21258 19.6636 5.22582 19.6667C7.40764 20.784 9.75409 20.7777 11.934 19.6477C12.3677 19.4229 12.6329 19.4229 13.0666 19.6477C15.2465 20.7777 17.593 20.784 19.7748 19.6667C19.788 19.6636 19.8117 19.6588 19.8474 19.6541C19.9492 19.6405 20.0919 19.6348 20.2711 19.6431C20.3221 19.6454 20.3891 19.6497 20.4688 19.6547C20.8796 19.6806 21.6269 19.7277 22.2515 19.6501C22.3955 19.6322 22.5653 19.605 22.7496 19.5599C22.7123 21.485 20.8801 22.5909 19.2702 22.6501C17.8578 22.702 15.7433 22.75 12.7502 22.75C9.75704 22.75 7.64259 22.702 6.23019 22.6501C4.6458 22.5918 2.84604 21.5198 2.7539 19.6507C3.37754 19.7275 4.12208 19.6805 4.53177 19.6547C4.61144 19.6497 4.67856 19.6454 4.72954 19.6431Z" fill="#B9B9B9"/>
</g>
</g>
</svg>
