<svg width="200" height="200" viewBox="0 0 200 200" fill="none" xmlns="http://www.w3.org/2000/svg">
<g id="Computer-World-Map-Location--Streamline-Milano.svg">
<g id="computer-world-map-location--computer-screen-world-map-location-symbols-monitor">
<path id="line" fill-rule="evenodd" clip-rule="evenodd" d="M38.8834 133.121C28.9041 133.461 21.5382 133.822 16.825 134.053C12.6653 134.257 10.5716 134.36 10.5708 134.257C10.4076 134.279 10.2584 134.361 10.1521 134.487C10.0459 134.612 9.99004 134.773 9.99548 134.938C10.0009 135.102 10.0672 135.259 10.1816 135.378C10.2959 135.496 10.4502 135.568 10.6145 135.579C11.4096 135.574 12.9486 135.542 15.2556 135.497C19.9286 135.405 27.7524 135.25 38.926 135.109C38.9153 134.647 38.9006 133.976 38.8834 133.121ZM160.301 135.159C169.616 135.255 179.395 135.374 189.648 135.518C189.727 135.52 189.804 135.506 189.878 135.479C189.951 135.45 190.018 135.408 190.075 135.354C190.132 135.3 190.178 135.235 190.21 135.163C190.241 135.092 190.259 135.015 190.261 134.936C190.263 134.857 190.25 134.779 190.222 134.706C190.194 134.633 190.152 134.566 190.098 134.509C190.044 134.452 189.979 134.406 189.907 134.374C189.836 134.342 189.759 134.324 189.68 134.323C179.466 133.894 169.678 133.544 160.319 133.261C160.314 133.906 160.307 134.539 160.301 135.159Z" fill="#4952FF"/>
<g id="computer">
<path id="vector" d="M125.707 154.815C44.0888 153.722 31.7806 156.43 33.7005 152.768C34.4111 151.413 38.8619 145.708 40.2622 145.562C49.7973 144.566 84.5065 144.867 95.6206 145.267C115.694 145.988 158.95 144.64 162.073 147.044C164.475 148.892 169.912 154.296 169.975 154.384C170.346 154.891 169.638 155.325 169.109 155.334C158.52 155.453 126.985 154.827 125.707 154.815ZM58.5421 151.993C58.2571 152.762 58.1222 152.836 58.43 152.842C58.4423 152.842 64.3494 152.797 65.3013 152.768C73.0685 152.528 93.1905 153.475 92.9359 152.738C92.7318 151.922 92.6094 151.088 92.5701 150.248C92.5008 149.743 92.5948 149.758 83.3171 149.751C83.1917 149.751 82.8165 149.699 82.8326 149.921C82.9836 150.734 83.0038 151.566 82.8925 152.385C82.7329 152.84 82.2987 152.642 82.1581 152.355C81.0903 150.177 82.1581 149.675 80.8994 149.656C80.8794 149.656 72.0245 149.547 71.3386 149.546C71.0431 149.546 70.9462 149.408 70.6185 151.048C70.463 151.442 70.379 151.86 70.3705 152.283C70.4066 152.526 69.241 152.733 69.7559 149.969C69.8347 149.55 70.9785 149.671 59.6526 149.831C59.2327 149.836 59.3876 149.748 58.5421 151.993ZM107.867 149.941C104.463 149.933 105.587 149.362 105.82 152.74C105.844 153.097 105.828 152.835 131.715 153.528C131.86 153.528 131.876 153.451 131.81 153.338C129.743 149.741 132.213 150.431 127.659 150.351C122.983 150.269 119.721 150.028 118.512 150.061C117.935 150.077 119.342 152.859 118.718 153.13C118.424 153.258 118.137 152.98 117.98 152.693C116.375 149.786 118.332 149.996 114.6 149.954C113.567 149.937 108.711 149.943 107.867 149.941ZM155.09 151.819C154.805 151.324 154.615 151.711 146.409 151.12C144.034 150.948 145.4 150.861 145.515 153.087C145.529 153.353 145.246 153.475 144.763 153.014C143.509 151.813 144.003 150.869 142.768 150.856C139.983 150.829 139.801 150.471 132.343 150.439C131.824 150.439 132.075 150.35 132.84 153.308C132.935 153.664 141.728 153.759 156.115 154.031C156.478 154.033 156.361 154.037 155.09 151.819ZM40.7533 150.133C40.1206 150.133 39.4927 150.139 38.86 150.124C37.5433 150.093 37.7409 149.329 41.71 149.224C42.4538 149.204 44.6132 148.999 45.567 148.934C47.5458 148.801 47.5724 148.943 47.7092 148.649C48.7751 146.387 49.5142 146.118 48.5576 146.163C42.7626 146.443 40.3097 146.441 40.3097 146.441C39.8071 146.519 36.8897 150.336 34.8529 152.937C34.7655 153.049 34.8225 153.127 34.9422 153.12C34.9621 153.12 46.3213 153.055 46.2567 152.781C46.0999 152.116 46.4714 151.356 46.9616 150.151C47.1611 149.673 46.7602 150.133 40.7533 150.133ZM156.693 151.68C156.279 151.668 156.653 152.015 157.496 153.747C157.897 154.571 167.075 154.04 168.317 154.308C169.008 154.457 167.014 153.041 165.733 151.812C160.916 147.188 162.018 147.089 153.911 147.245C153.472 147.253 153.961 147.362 155.61 150.234C156.049 150.994 160.62 150.309 163.648 150.949C164.101 151.044 164.754 151.556 164.331 151.654C163.301 151.896 156.947 151.691 156.693 151.68ZM103.183 152.925C104.831 152.92 104.882 152.985 104.789 152.726C104.01 150.556 104.539 149.914 103.821 149.937C97.8436 150.127 103.726 149.942 94.1243 149.924C93.7614 149.924 93.8536 149.908 93.9628 152.608C93.9828 153.096 93.7158 152.954 103.183 152.925ZM56.3096 152.934C57.6196 152.934 57.5028 152.957 57.5446 152.56C57.8514 149.859 58.638 149.838 57.67 149.839C48.4426 149.846 48.5243 149.757 48.2849 150.26C47.0499 152.851 46.5673 152.92 46.9445 152.934H56.3096ZM130.237 149.184C129.63 146.686 129.667 146.73 129.412 146.754C128.842 146.808 117.296 146.602 117.442 147.026C118.138 149.045 117.963 148.914 118.38 148.926C118.703 148.945 129.997 149.422 130.237 149.184ZM131.356 146.76C130.833 146.747 130.691 146.72 130.803 147.01C131.718 149.374 131.555 149.222 131.976 149.24C142.874 149.7 141.874 149.731 142.874 149.715C141.493 145.519 143.081 147.066 131.356 146.76ZM153.764 150.425C153.927 150.425 154.315 150.483 154.136 150.191C152.246 147.123 152.418 147.236 152.089 147.229C152.069 147.229 143.167 146.754 143.235 147.095C143.261 147.229 143.747 148.212 144.348 149.58C144.65 150.255 153.623 150.284 153.764 150.425ZM69.8917 148.44C70.229 148.426 70.1482 148.301 70.6099 146.976C71.026 145.782 71.3918 146.225 68.2539 146.225C66.9591 146.225 68.2083 146.153 60.7489 146.152C60.3642 146.152 60.5152 146.057 59.8854 148.337C59.7011 148.998 69.1954 148.468 69.8917 148.44ZM58.1801 148.733C58.6751 148.733 58.4794 148.923 59.4854 146.643C59.7704 145.989 60.7461 145.95 50.4376 146.146C50.0244 146.155 50.2647 146.214 49.252 148.369C48.9072 149.108 48.3305 148.726 58.1801 148.733ZM92.2975 148.733C92.6423 148.744 92.5274 148.785 92.7544 146.669C92.8143 146.105 87.1713 146.358 82.6949 146.154C82.2199 146.132 82.6426 146.419 82.6949 147.901C82.7367 149.115 82.6483 148.448 92.2975 148.733ZM105.562 146.752C104.82 146.752 104.699 146.689 104.78 146.972C105.267 148.649 105.046 148.725 105.615 148.74H114.535C117.228 148.747 116.797 149.373 116.408 147.425C116.218 146.466 116.472 146.781 110.388 146.824C110.083 146.83 110.386 146.751 105.562 146.752ZM73.2699 146.145C71.9912 146.145 71.9675 146.084 71.9048 146.35C71.1381 149.626 69.9288 147.798 81.2642 148.535C81.7506 148.566 81.2404 147.483 81.6793 146.432C81.9748 145.724 80.0634 146.586 73.2699 146.145ZM103.939 148.526C103.755 146.64 103.853 146.769 103.382 146.758C92.9321 146.502 93.6275 146.355 93.6655 146.788C93.846 148.805 93.8175 148.736 94.1329 148.737C101.477 148.783 103.939 149.042 103.939 148.526Z" fill="#4952FF"/>
<path id="Subtract" fill-rule="evenodd" clip-rule="evenodd" d="M40.7013 53.4991C40.9715 53.6079 41.2642 53.7493 41.5625 53.8936C42.2462 54.2241 42.9601 54.5691 43.5024 54.5691C43.6842 54.5604 43.8665 54.5645 44.0477 54.5814C45.2372 54.6968 45.6981 55.4404 46.1546 56.1772C46.4838 56.7083 46.8107 57.2359 47.4069 57.5217C47.8755 57.7117 48.3187 57.959 48.7265 58.2579C48.8383 58.355 48.9244 58.5108 49.0162 58.6766C49.1675 58.9501 49.3338 59.2509 49.6556 59.3609C50.0517 59.4967 50.2427 59.2165 50.4061 58.8688C50.4679 58.7062 50.5653 58.5596 50.6911 58.4394C50.8744 58.2256 51.0711 58.0727 51.623 58.2123C52.1527 58.3723 52.6319 58.6669 53.0138 59.0673C53.057 59.275 53.0652 59.4873 53.039 59.6959C53.8986 59.6685 54.8121 59.6411 55.7827 59.6138C55.6445 59.1304 55.3875 58.6859 55.0316 58.3225C54.663 57.9974 54.2517 57.724 53.809 57.5103C52.6277 56.9144 51.6812 56.7307 50.924 56.5838C49.7897 56.3636 49.0801 56.226 48.6419 54.9082C48.4805 54.4232 48.2079 52.7625 48.833 51.4352C46.4944 51.5133 44.1826 51.5951 41.901 51.6803C41.6162 52.3499 41.2112 52.967 40.7013 53.4991ZM53.9197 51.2724C57.0031 51.1781 60.1271 51.0902 63.2841 51.0093L63.3014 51.0341C63.5075 51.0508 63.4439 51.6535 63.3723 52.3317C63.3215 52.8131 63.2667 53.3324 63.3014 53.7074C63.3713 54.1106 63.507 54.4997 63.7032 54.8588C63.9703 55.4393 64.2251 55.4412 64.4292 55.4427C64.4923 55.4432 64.5506 55.4436 64.6029 55.4611C65.2679 55.6853 65.9547 57.7345 65.7837 58.2465C65.4544 58.5579 65.2241 58.9584 65.1201 59.3983C63.4965 59.4286 61.9735 59.4604 60.5454 59.4929C60.2891 59.0199 60.1982 58.5749 60.1159 58.1721C60.0427 57.8137 59.9763 57.4887 59.8063 57.2072C58.9764 55.8309 58.4504 55.512 57.9867 55.2308C57.6999 55.0569 57.4369 54.8974 57.1406 54.5111C56.9855 54.3085 56.9148 54.0611 56.8436 53.8123C56.7867 53.6131 56.7296 53.413 56.6286 53.2343C55.8539 52.4182 54.9353 51.7532 53.9197 51.2724ZM80.3121 57.686C80.2628 58.2082 79.8177 58.7606 79.3722 59.204C85.8409 59.144 93.3337 59.1081 102.002 59.1103C105.479 55.2096 107.93 56.6942 110.696 59.1244C115.551 59.1389 120.732 59.1644 126.256 59.2032C126.266 59.17 126.277 59.1371 126.287 59.1044C126.397 58.7683 126.529 58.592 126.659 58.4192C126.933 58.0548 127.196 57.7061 127.197 55.9077C127.144 55.3965 127.173 54.8802 127.283 54.3782C127.758 52.938 128.583 52.4667 128.478 53.753C128.503 54.7573 128.601 55.7583 128.77 56.7484C128.78 56.9975 128.774 57.2041 128.77 57.3812C128.757 57.8891 128.751 58.1532 129.136 58.4736C129.414 58.7035 129.477 58.677 129.715 58.41C130.472 57.5587 130.742 56.4403 130.941 55.61C131.152 54.7371 131.286 54.1829 131.828 54.5928C132.078 54.9269 132.414 55.1857 132.801 55.3411C133.187 55.4964 133.609 55.5423 134.02 55.4736C134.546 55.3949 134.336 54.8205 134.068 54.0904C133.845 53.4787 133.58 52.7577 133.675 52.1277C133.758 51.5825 134.108 51.6671 134.512 51.7648C134.62 51.7909 134.732 51.8179 134.843 51.834C135.056 51.8837 135.277 51.8884 135.492 51.848C135.708 51.8075 135.912 51.7228 136.092 51.5991C136.273 51.4754 136.425 51.3156 136.541 51.1297C136.645 50.9611 136.717 50.7745 136.753 50.5797C132.605 50.5123 128.415 50.4629 124.2 50.4303C122.813 51.897 122.565 53.8605 122.367 55.4281C122.253 56.3259 122.156 57.0939 121.871 57.5644C121.743 57.7644 121.56 57.924 121.344 58.0249C121.129 58.1258 120.889 58.1637 120.654 58.1344C119.596 57.8883 118.28 55.5969 118.266 55.5609C117.962 54.9426 117.83 54.255 117.881 53.5686C117.931 52.8821 118.164 52.2215 118.554 51.6545C118.783 51.2688 119.054 50.8432 119.347 50.4001C106.937 50.3416 94.3591 50.4239 82.0361 50.62L81.9145 50.8208L81.8359 50.9505H81.9005C80.4741 53.2901 79.6769 54.3607 79.2341 54.9552C78.8824 55.4275 78.7544 55.5995 78.7123 55.8687C78.6964 56.064 78.7373 56.2598 78.83 56.4325C78.9226 56.6053 79.0632 56.7476 79.2348 56.8424C79.4089 56.9639 79.5942 57.047 79.7613 57.1219C80.0855 57.2674 80.3409 57.382 80.3121 57.686ZM160.067 86.363C160.033 84.8054 159.995 83.2607 159.954 81.7343C160.361 81.3799 160.784 80.7075 161.581 79.2064C161.621 79.1318 161.659 79.0607 161.695 78.9925C161.735 78.9175 161.774 78.8462 161.81 78.7782L161.815 78.7678L161.82 78.7588C162.474 77.5441 162.564 77.3764 162.596 75.794C162.606 75.375 162.601 75.3628 162.21 75.244C161.016 74.8802 159.44 73.2983 161.396 72.0301C162.188 71.5149 162.57 71.1 162.87 70.7734C163.227 70.3853 163.469 70.1218 164.151 69.963C165.218 69.9896 166.287 69.9308 167.346 69.7871C167.955 69.4765 168.554 69.1444 169.139 68.7915C169.825 84.5387 169.56 100.626 168.796 116.453C168.166 115.584 167.59 114.677 167.07 113.739C165.298 110.858 164.269 110.706 161.377 110.28C161.044 110.238 160.702 110.211 160.368 110.199C160.365 109.606 160.362 109.013 160.358 108.416C160.569 108.483 160.797 108.564 161.047 108.677C162.251 109.385 163.544 109.93 164.892 110.299C165.376 110.402 166.087 110.529 166.451 110.099C167.553 108.806 163.764 105.857 162.298 105.383C161.655 105.129 160.999 104.911 160.333 104.729C160.295 99.8804 160.234 94.9552 160.143 90.1113C160.161 90.1148 160.178 90.118 160.195 90.121C161.025 90.2683 163.365 89.1083 164.165 88.165C165.654 86.4194 165.752 85.6577 165.87 84.7459C165.905 84.4708 165.942 84.1818 166.02 83.8482C166.098 83.5163 166.341 83.1013 166.602 82.6553C166.932 82.0927 167.29 81.4805 167.383 80.9231C167.691 79.0782 164.888 79.9275 164.748 79.9798C163.587 80.4095 163.261 81.1128 162.793 82.1259C162.496 82.7704 162.139 83.5402 161.473 84.4448C161.291 84.6926 161.116 84.925 160.95 85.1463C160.619 85.5844 160.323 85.9789 160.067 86.363ZM168.397 56.5147L168.413 56.7188C168.244 56.4826 168.15 56.2064 168.12 55.9286C167.978 54.6482 166.906 54.0687 166.257 53.7184C166.095 53.6314 165.961 53.5587 165.873 53.4927C165.603 53.2907 165.379 52.9986 165.135 52.6812C164.795 52.239 164.417 51.7475 163.827 51.3815C164.89 51.5897 165.877 52.099 166.667 52.8575C167.673 53.823 168.289 55.1247 168.397 56.5147ZM167.318 126.328C167.696 125.617 168.051 124.895 168.385 124.162C168.04 130.09 167.635 135.967 167.193 141.76C167.257 142.539 167.533 142.752 168.091 143.181C168.301 143.344 168.553 143.537 168.847 143.804C169.977 144.825 171.034 145.778 172.022 146.67L172.033 146.679C185.106 158.471 186.216 159.473 186.135 163.868C186.131 164.144 186.131 164.4 186.131 164.638C186.128 166.473 186.127 167.307 184.264 168.469C179.661 171.343 93.2254 168.958 85.4696 168.683C75.4531 168.328 63.3877 168.371 52.0984 168.412C35.1017 168.475 19.8636 168.53 16.0246 167.206C15.2798 166.949 14.8808 166.638 14.6357 165.455C14.4319 164.42 14.3049 163.373 14.2557 162.32C14.2525 162.01 14.2382 161.731 14.2247 161.469C14.0693 158.432 14.0361 157.783 32.8007 141.167L32.8209 141.149C33.0802 140.916 33.0808 140.916 32.89 140.122C30.624 130.688 29.9173 106.612 30.2508 86.0584C30.3829 86.2737 30.4835 86.4914 30.5169 86.8273C30.7179 87.1529 30.9491 87.4589 31.2075 87.7412C31.8686 88.5003 32.0538 88.9627 32.2901 89.5526C32.4291 89.8994 32.5858 90.2903 32.8672 90.8116C34.388 93.6129 34.9652 92.4438 35.4132 91.5364C35.4907 91.3794 35.5643 91.2303 35.6383 91.1108C35.6707 91.0595 35.7153 91.0171 35.7682 90.9874C35.8211 90.9577 35.8805 90.9416 35.9412 90.9407C36.0018 90.9397 36.0617 90.954 36.1155 90.982C36.1693 91.01 36.2152 91.0511 36.2492 91.1013C37.0322 92.2028 37.7922 93.1388 38.6838 94.2372C38.4345 114.963 38.9361 135.756 38.9443 135.841C38.9952 135.833 44.8494 135.852 53.9613 135.883C54.3995 136.462 54.8906 137.099 55.1998 137.469C55.861 138.26 56.4804 138.971 56.83 138.971C57.039 138.971 57.2356 138.624 57.4237 137.941C57.4926 137.677 57.5294 136.865 57.5587 135.896L59.6353 135.903C94.1995 136.023 159.964 136.251 160.292 136.048C160.331 132.41 160.361 128.307 160.375 123.901C161.137 124.851 161.72 125.111 162.254 125.349C162.652 125.526 163.023 125.692 163.419 126.122C163.522 126.233 163.638 126.38 163.768 126.542C164.182 127.062 164.733 127.753 165.398 128.028C166.212 128.363 166.737 127.413 167.318 126.328ZM177.805 163.337C169.495 163.638 32.8235 162.25 24.4122 162.124C12.4025 161.946 13.1857 161.226 23.0591 152.143C25.8694 149.558 29.4162 146.294 33.6139 142.174C33.8071 141.984 33.8481 141.99 34.2466 142.041C34.4926 142.073 34.8751 142.121 35.5139 142.152C48.4564 142.785 84.7678 142.854 115.884 142.913C142.969 142.966 166.119 143.009 166.489 143.411C171.341 148.678 175.75 152.568 179.005 155.439C185.796 161.433 187.556 162.985 177.805 163.337Z" fill="#4952FF"/>
</g>
<g id="map">
<path id="Subtract_2" fill-rule="evenodd" clip-rule="evenodd" d="M58.4697 43.6165C57.8731 44.5057 57.7249 45.2382 58.5181 45.8965C59.4395 46.6656 60.1464 46.7174 60.6834 46.757C61.1741 46.793 61.523 46.8185 61.7643 47.3709C62.1793 48.3208 62.3895 48.9449 62.553 49.4304C62.7657 50.0618 62.8996 50.459 63.3023 51.0341C63.5085 51.0509 63.4448 51.6535 63.3733 52.3318C63.3224 52.8131 63.2676 53.3325 63.3023 53.7074C63.3722 54.1107 63.508 54.4996 63.7042 54.8588C63.9712 55.4393 64.226 55.4412 64.4302 55.4427C64.4932 55.4432 64.5516 55.4437 64.6038 55.4611C65.2688 55.6853 65.9557 57.7345 65.7847 58.2465C65.4362 58.5761 65.1984 59.0055 65.1042 59.4758C65.0099 59.9461 65.0638 60.434 65.2584 60.8723C65.479 61.3834 65.6694 61.9072 65.8284 62.4408C66.0557 63.1578 66.3454 63.4682 66.604 63.7454C66.8858 64.0473 67.131 64.31 67.2192 65.0162C67.4652 66.9827 69.864 69.5981 70.6686 68.8229C70.9509 68.5678 71.1959 68.2742 71.3963 67.9508C72.1508 66.6321 72.593 65.7426 72.9191 65.0866C73.2258 64.4695 73.4299 64.059 73.6945 63.6924C74.2203 62.9642 74.9852 62.4087 77.2693 60.7501C77.6702 60.459 78.1196 60.1325 78.6211 59.7665C78.6937 59.7241 78.7736 59.6951 78.8567 59.681C79.3915 59.2146 80.2437 58.4204 80.313 57.686C80.3419 57.3819 80.0864 57.2674 79.7622 57.1219C79.5952 57.0471 79.4098 56.9639 79.2357 56.8424C79.0641 56.7476 78.9235 56.6053 78.8309 56.4326C78.7382 56.2599 78.6973 56.0641 78.7132 55.8687C78.7553 55.5996 78.8834 55.4276 79.235 54.9553C79.6778 54.3607 80.4751 53.2902 81.9014 50.9505H81.8368L81.9155 50.8208C82.5744 49.7339 82.8502 49.279 82.8829 48.8071C82.9064 48.4675 82.804 48.1192 82.6277 47.5199C82.5746 47.3392 82.5147 47.1356 82.4496 46.9026C82.2469 46.462 82.175 45.9724 82.2424 45.4922C82.3098 45.0119 82.5136 44.5611 82.8296 44.1932C83.6998 42.7378 83.4932 41.9414 83.3208 41.2764C83.1932 40.7841 83.0842 40.3638 83.4442 39.8013C83.9905 38.9463 84.5576 37.9479 83.9069 37.0121C83.7638 36.8063 83.6559 36.6237 83.5538 36.4512C83.1005 35.6844 82.7648 35.1166 79.9853 33.5864C79.6922 33.4253 79.493 33.2539 79.3008 33.0886C78.6658 32.5422 78.1083 32.0624 74.4981 32.2441C73.3251 32.2037 72.1522 32.3252 71.0125 32.6051C69.0513 33.0032 68.0308 33.1762 67.4405 33.2763C66.7633 33.3911 66.6523 33.4099 66.3366 33.5627C65.1241 34.1433 64.5638 34.8095 63.9115 35.585C63.5233 36.0465 63.1023 36.5468 62.492 37.091C62.0817 37.4568 61.7853 37.7385 61.5533 37.9589C60.9876 38.4963 60.8045 38.6704 60.2851 38.8152C59.0397 39.162 58.4478 39.3795 58.1163 39.9087C56.8935 41.8557 57.7346 42.6145 58.24 43.0704C58.4832 43.2896 58.6485 43.4389 58.4697 43.6165ZM58.8938 41.1643C58.9828 40.8993 59.0724 40.6319 59.432 40.4749C59.6514 40.3743 59.8643 40.2783 60.0709 40.1853C61.7215 39.4419 62.9761 38.8767 63.9673 37.4938C65.963 34.7172 67.2542 34.5875 68.6737 34.445C69.0327 34.4089 69.4 34.3721 69.7889 34.2913C71.1016 33.9066 72.4581 33.6908 73.8255 33.6491C74.711 33.6457 75.1411 33.5539 75.4257 33.4931C75.6141 33.4529 75.7389 33.4262 75.8898 33.4477C76.0716 33.4738 76.2384 33.4969 76.392 33.5183C77.4886 33.6708 77.9165 33.7302 78.3522 34.0567C79.771 35.1198 80.3169 35.3556 80.6371 35.4938C80.7221 35.5306 80.7911 35.5604 80.8564 35.597C81.1395 35.7559 81.3509 36.0424 82.4788 37.5713L82.5835 37.7132C82.9333 38.1879 82.6699 38.5804 82.3126 39.1128L82.2662 39.1819C81.6936 40.0402 81.8207 40.6697 81.9539 41.3302C82.0929 42.0186 82.2387 42.7407 81.606 43.7904C80.6645 45.3529 81.0048 46.4877 81.298 47.4656C81.5533 48.3169 81.773 49.0495 81.0797 49.8419C80.106 51.0111 79.345 52.3419 78.831 53.7739C78.7618 53.9215 78.6332 54.0647 78.4842 54.2308C78.0747 54.6871 77.5103 55.3158 77.596 56.6809C77.6428 57.4556 78.4415 57.5409 78.9258 57.5927C79.2077 57.6228 79.383 57.6415 79.2414 57.7782C78.2564 58.7297 77.2515 59.3787 76.2816 60.0053C74.5874 61.0995 72.9997 62.125 71.8096 64.5735C71.6776 64.845 71.5571 65.0942 71.4466 65.3229C70.3884 67.5116 70.2473 67.8033 69.8431 67.3551C68.5583 65.9392 68.5411 65.7726 68.4553 64.9443L68.4418 64.8148C68.3387 63.8382 67.9865 63.4457 67.6282 63.0465C67.3593 62.7468 67.0869 62.4434 66.9142 61.886C66.7187 61.2561 66.5584 60.8882 66.4526 60.6452C66.3586 60.4293 66.3075 60.3119 66.3129 60.1974C66.3192 60.0611 66.4053 59.9287 66.5935 59.639C66.6473 59.5562 66.7093 59.4606 66.7803 59.3485C67.2729 58.5679 67.1397 58.1346 66.6275 56.4672C66.5195 56.1154 66.3944 55.7086 66.2549 55.2322L66.2408 55.184C66.065 54.5795 65.9515 54.1892 65.2498 54.2632C64.3313 54.2694 64.5584 53.3295 64.7346 52.6003C64.7759 52.4298 64.8143 52.2708 64.8347 52.138C64.9523 51.3552 64.7178 50.9201 64.411 50.3508C64.2222 50.0005 64.0061 49.5994 63.8277 49.0353C62.7401 45.5995 62.0481 45.5565 61.0381 45.4938C60.5633 45.4644 60.0181 45.4306 59.3285 45.0377C59.0362 44.8712 59.2518 44.6244 59.5207 44.3164C59.8962 43.8865 60.3756 43.3376 59.7237 42.7216C59.4912 42.5015 59.2987 42.3497 59.1477 42.2305C58.7531 41.9192 58.6409 41.8307 58.8354 41.3299C58.8565 41.2755 58.8751 41.2199 58.8938 41.1643ZM48.6429 54.9082C49.081 56.226 49.7906 56.3636 50.9249 56.5838C51.6822 56.7307 52.6287 56.9144 53.8099 57.5103C54.2526 57.724 54.664 57.9974 55.0326 58.3225C55.5207 58.8208 55.8226 59.4718 55.8876 60.1663C55.9526 60.8608 55.7769 61.5565 55.3898 62.1368C55.0688 62.4559 54.8715 62.8786 54.8333 63.3296C54.795 63.7807 54.9181 64.2306 55.1808 64.5992C55.5684 65.2028 55.8498 65.1824 56.1214 65.1628C56.3157 65.1488 56.505 65.1351 56.7245 65.3506C56.8956 65.5191 57.0554 65.681 57.2084 65.8359C58.2447 66.8856 58.9685 67.6186 60.7706 67.9232C62.4613 68.2081 61.9296 66.7583 61.3175 65.0889C61.2378 64.8715 61.1561 64.6488 61.0784 64.4272C61.0154 64.2473 61.1769 64.2444 61.3909 64.2406C61.6708 64.2355 62.0404 64.2289 62.1158 63.823C62.3736 63.1355 62.4949 62.4043 62.473 61.6703C62.3173 61.0314 61.9234 60.761 61.5103 60.4774C61.2023 60.266 60.8837 60.0473 60.6452 59.663C60.3118 59.1263 60.2089 58.6227 60.1169 58.1721C60.0436 57.8137 59.9772 57.4887 59.8073 57.2072C58.9773 55.8309 58.4513 55.512 57.9876 55.2308C57.7008 55.0569 57.4379 54.8974 57.1416 54.5111C56.9864 54.3085 56.9157 54.0611 56.8446 53.8123C56.7877 53.6131 56.7305 53.413 56.6295 53.2343C55.7912 52.3511 54.7843 51.645 53.6684 51.1576C53.4227 51.0384 53.1657 50.8741 52.8723 50.6863C52.5178 50.4596 52.1102 50.1988 51.605 49.9426C50.8573 49.5626 50.465 49.7877 49.7582 50.3017C48.0206 51.5633 48.4291 54.266 48.6429 54.9082ZM50.9808 50.9885C51.3716 51.2606 51.5826 51.3529 51.8621 51.4751C52.211 51.6277 52.6666 51.8269 53.7121 52.481C53.9721 52.6435 54.1933 52.7772 54.3833 52.892C55.4361 53.5279 55.5301 53.5845 55.9284 54.761C56.1297 55.3545 56.3375 55.5102 56.8612 55.9024C57.242 56.1876 57.7897 56.5979 58.6236 57.3925C58.8287 57.5876 58.8742 57.8913 58.9366 58.3083C59.0042 58.7604 59.0918 59.3456 59.4244 60.0696C59.6474 60.5573 59.7075 60.6005 60.4337 61.123L60.5948 61.239C61.5334 61.9154 61.3197 63.0849 61.0261 63.0003C59.6835 62.615 60.0591 63.977 60.383 65.1515C60.8026 66.6728 61.1354 67.8795 57.5349 64.5669C57.0436 64.1153 56.6337 64.1312 56.3406 64.1426C56.1276 64.151 55.9765 64.1568 55.9009 63.9788C55.8223 63.8024 55.7912 63.6085 55.8107 63.4163C55.8302 63.2243 55.8996 63.0405 56.012 62.8835C56.4417 62.3766 56.7357 61.769 56.8666 61.1175C56.9975 60.4661 56.9611 59.7921 56.7606 59.1585C56.5496 58.3422 56.0388 57.6353 55.3299 57.1787C54.0438 56.4115 52.6302 55.8819 51.1566 55.615C49.8443 55.3214 49.7432 54.9448 49.6116 54.4553C49.587 54.3637 49.5612 54.2678 49.5264 54.1682C49.36 53.4221 49.3928 52.6452 49.6214 51.9157C49.6926 51.7628 50.3614 50.5601 50.9808 50.9885ZM70.1623 102.274C69.4426 100.458 68.4107 99.7974 67.4805 99.202C66.8892 98.8234 66.3391 98.4712 65.9367 97.8653C65.5489 97.2216 65.0734 96.6349 64.524 96.1221C63.9451 95.651 63.2695 95.3131 62.5453 95.1325C61.8211 94.9519 61.0659 94.933 60.3336 95.0771C58.8697 95.3161 57.6022 96.0561 56.4731 96.7153C55.1019 97.5157 53.9349 98.197 52.8685 97.7171C50.9451 96.8554 50.6915 96.3026 50.4542 95.7851C50.2821 95.4099 50.1185 95.0531 49.3326 94.6106C48.7626 94.2914 48.812 94.1356 48.9735 93.8079C49.7952 92.1292 47.9361 90.7812 45.373 92.2603C44.7165 92.6403 44.3451 92.2603 43.9803 91.7654C43.8444 91.5816 43.7225 91.4189 43.6138 91.2739C42.8114 90.203 42.7329 90.0983 43.1319 89.6022C43.3928 89.2784 43.5837 89.0305 43.729 88.8419C44.034 88.4458 44.1382 88.3106 44.2662 88.2817C44.3324 88.2668 44.4051 88.2804 44.5153 88.301C44.8758 88.3684 45.6382 88.5108 47.8924 87.9787C48.0819 87.9344 48.1003 87.9704 48.183 88.1323C48.2776 88.3176 48.4566 88.668 49.0732 89.2517C49.7747 89.7263 50.406 90.2972 50.9485 90.9474C51.0381 91.0426 51.0922 91.177 51.156 91.3351C51.2646 91.6048 51.4013 91.944 51.7893 92.2774C52.6661 93.0289 53.3093 92.0181 53.3568 90.7299C53.3683 90.4377 53.3665 90.195 53.365 89.9883C53.3587 89.1011 53.357 88.8745 54.4265 88.2181C55.2533 87.7116 55.91 86.9696 56.3122 86.0872C56.7354 85.1799 57.2103 84.9496 57.7028 84.7109C58.0714 84.5321 58.4499 84.3486 58.824 83.8728C59.6303 82.8465 59.9016 81.7964 60.1131 80.9778C60.3463 80.0749 60.5067 79.4538 61.2323 79.4572C61.2554 79.4572 61.3179 79.4661 61.4099 79.4791C61.9975 79.5626 63.7942 79.8179 64.3321 79.0401C64.4358 78.8898 64.535 78.7468 64.6295 78.6106C65.8318 76.8776 66.2675 76.2499 65.6412 75.2933C65.1334 74.518 64.6196 74.3018 64.2127 74.1305C63.8249 73.9673 63.5341 73.845 63.4382 73.3183C63.1247 71.597 62.9763 71.4098 62.6611 71.0122C62.4432 70.7373 62.1456 70.362 61.6588 69.3102C61.1421 68.1935 60.4783 69.1616 59.935 69.9541C59.8161 70.1275 59.7029 70.2926 59.5983 70.4255C59.5118 70.1285 59.4442 69.8648 59.3838 69.6292C59.1219 68.6072 58.9966 68.1183 58.0593 67.7522C57.2815 67.5299 56.539 67.1992 55.8534 66.7699C55.3489 66.3966 54.7618 66.2892 54.4569 66.8915C53.9464 67.7501 53.6699 68.7275 53.6547 69.7262C53.6395 70.725 53.8863 71.7102 54.3704 72.5839C54.5898 73.1396 54.4052 73.4842 54.1281 74.0017C53.8651 74.4929 53.5186 75.1399 53.3549 76.2709C53.3367 76.326 53.3091 76.3774 53.2732 76.4229C52.9513 76.1357 52.8414 75.5942 52.695 74.8735C52.6564 74.6838 52.6154 74.4815 52.5673 74.2683C52.4489 73.7563 52.1602 73.6488 51.8827 73.5453C51.7483 73.4953 51.6165 73.4462 51.5081 73.3525C50.9936 73.0237 50.4264 72.7859 49.8313 72.6495C49.4974 72.5574 49.323 72.3451 49.1465 72.1301C48.8875 71.8148 48.6238 71.4936 47.8449 71.537C47.5659 71.5524 47.5731 71.4597 47.5869 71.2786C47.6047 71.0465 47.6336 70.6689 47.0849 70.188C46.9752 70.0921 46.884 70.0165 46.8093 69.9546C46.6317 69.8075 46.5474 69.7377 46.5321 69.6551C46.5181 69.5806 46.5603 69.4956 46.6404 69.3339L46.6555 69.3036C46.9577 68.6992 47.0382 68.3754 47.0859 68.184C47.1281 68.0143 47.1444 67.9485 47.2663 67.8833C47.4928 67.7624 47.7149 67.6622 47.9257 67.567C48.7435 67.1977 49.3928 66.9046 49.4789 65.7762C49.6779 65.146 49.9991 64.5611 50.4241 64.0548C50.787 63.5106 50.833 63.2027 50.8566 63.0443C50.8665 62.9786 50.8725 62.9386 50.8957 62.9182C50.9317 62.8863 51.0093 62.9016 51.2074 62.9407L51.2402 62.9471C52.6604 63.2286 52.8971 61.6887 53.0418 60.7468C53.0778 60.5126 53.1082 60.3152 53.1497 60.1921C53.2181 59.9907 53.3995 59.169 53.1858 58.94C52.7773 58.5104 52.2644 58.1939 51.6971 58.0214C51.4857 57.9311 51.2493 57.9185 51.0295 57.9858C50.8097 58.0531 50.6209 58.1959 50.4963 58.389C50.3885 58.4924 50.3174 58.6435 50.2498 58.787C50.131 59.0394 50.0231 59.2685 49.7458 59.1747C49.4897 59.088 49.3495 58.8322 49.2106 58.5788C49.1135 58.4017 49.0171 58.2258 48.8823 58.1097C48.457 57.8062 47.9991 57.5513 47.5171 57.3497C46.9854 57.0949 46.6719 56.5971 46.3465 56.0803C45.8668 55.3185 45.3611 54.5154 44.0914 54.3886C43.8898 54.3684 43.7537 54.3715 43.6348 54.3741C43.2457 54.3829 43.0417 54.3875 41.3307 53.5564C41.1761 53.4732 41.017 53.3991 40.8542 53.3346C40.7547 53.4463 40.651 53.5546 40.5429 53.6593C40.2216 53.9704 39.8692 54.2428 39.493 54.4731C39.6055 54.4464 39.7187 54.4286 39.8326 54.4218C40.3987 54.3888 40.9096 54.6348 41.4315 54.8862C42.0026 55.1613 42.5871 55.4428 43.2716 55.3718C43.4856 55.3349 43.7045 55.3349 43.9185 55.3718C44.4588 55.5771 44.9056 55.9723 45.1754 56.4833C45.7733 57.5974 46.7538 58.4578 47.9361 58.9058C48.4397 59.1219 48.5478 59.38 48.668 59.6672C48.7519 59.8675 48.8418 60.082 49.0761 60.3061C49.1257 60.3732 49.1888 60.429 49.2615 60.4699C49.3342 60.5108 49.4146 60.5359 49.4977 60.5436C49.5807 60.5513 49.6644 60.5415 49.7433 60.5147C49.8223 60.4878 49.8947 60.4446 49.9558 60.3878C50.4952 60.0166 50.7408 59.5842 50.9201 59.2686C51.1591 58.8479 51.2802 58.6348 51.8225 59.0512C51.9069 59.1157 51.9921 59.1643 52.0696 59.2087C52.2917 59.3355 52.4508 59.4265 52.346 59.7475C52.1313 60.1007 51.9931 60.4948 51.9403 60.9046C51.8385 62.0314 51.6964 62.0138 50.8844 61.9124C50.7045 61.8899 50.4915 61.8634 50.2389 61.8442C50.1401 61.8434 50.0424 61.8652 49.9532 61.9076C49.864 61.9502 49.7856 62.0123 49.724 62.0896C49.6623 62.1668 49.619 62.257 49.5972 62.3534C49.5755 62.4498 49.576 62.5498 49.5986 62.646C49.7174 63.0258 49.5464 63.2762 49.2682 63.684C49.0125 64.0585 48.6663 64.5657 48.3712 65.4276C48.3541 65.4779 48.3396 65.537 48.324 65.6006C48.2598 65.8623 48.1774 66.1988 47.8211 66.2997C47.3784 66.4251 46.2061 67.0511 46.1187 67.4862C46.0284 67.9591 45.8468 68.3616 45.684 68.7223C45.369 69.4203 45.1243 69.9623 45.7482 70.5566C45.8237 70.6288 45.8908 70.6916 45.9504 70.7474C46.1799 70.9624 46.297 71.072 46.3519 71.207C46.4093 71.3476 46.3992 71.5158 46.3785 71.859L46.3705 71.9949C46.3675 72.1236 46.3923 72.2512 46.4429 72.3694C46.4936 72.4877 46.5689 72.5936 46.664 72.6803C46.7591 72.7669 46.8716 72.8321 46.994 72.8715C47.1165 72.9109 47.2459 72.9237 47.3737 72.9088C47.4574 72.8968 47.5403 72.8801 47.621 72.8637C47.916 72.8041 48.1834 72.7501 48.3655 72.9506C48.83 73.4713 49.4171 73.6534 49.9653 73.8234C50.6973 74.0504 51.3599 74.2558 51.5679 75.2173C52.2956 78.5889 54.2868 78.188 54.4569 76.9397C54.4972 75.9907 54.8499 75.0817 55.4601 74.3538C56.1618 73.5564 55.7152 72.4792 55.2863 71.445C54.9658 70.6718 54.655 69.9226 54.8416 69.3321C54.985 68.8778 55.0657 68.5476 55.1221 68.3173C55.2234 67.9024 55.2455 67.8125 55.4116 67.9071C56.2022 68.3457 56.7467 68.5323 57.1203 68.6602C57.5865 68.82 57.7863 68.8884 57.8655 69.2418C58.0092 69.969 58.2762 70.6662 58.6549 71.3033C59.2895 71.9531 60.192 71.367 60.4913 70.8065C60.5443 70.7069 60.5844 70.6194 60.6194 70.543C60.7152 70.3341 60.7733 70.2076 60.952 70.1415C61.4099 71.3241 61.6017 71.4722 61.7591 71.5938C61.9547 71.7447 62.0973 71.8548 62.6316 73.8588C62.7789 74.4117 63.3441 74.7347 63.8809 74.9836C64.3559 75.2059 65.0418 75.9678 64.5459 76.5758C64.1163 77.0995 63.8492 77.4561 63.6682 77.698C63.344 78.131 63.2956 78.1958 63.0829 78.1908C59.5696 78.1475 59.4288 78.6848 59.0565 80.1059C58.8825 80.7698 58.658 81.6266 58.0156 82.7071C57.7385 83.173 57.4009 83.3375 57.0186 83.5236C56.5528 83.7505 56.0204 84.0098 55.4506 84.8864C54.3931 86.5068 53.6528 87.0528 53.1452 87.427C52.4262 87.9573 52.1746 88.1428 52.1512 90.5503C52.1437 90.6106 52.1311 90.67 52.1132 90.728C51.3898 89.5903 50.8738 89.2503 50.418 88.9499C49.906 88.6123 49.4697 88.3249 48.9003 87.0125C48.6914 86.5298 48.1764 86.6544 47.3606 86.8518C46.6594 87.0215 45.7357 87.245 44.593 87.1826C43.6441 87.1306 43.6057 87.1838 43.0901 87.8971C42.8706 88.2008 42.5646 88.6241 42.0651 89.2099C41.865 89.542 41.7697 89.9267 41.7916 90.3137C41.8134 90.7008 41.9514 91.0723 42.1876 91.3797C42.4079 91.7294 42.5686 92.0117 42.7014 92.2448C43.1153 92.972 43.2575 93.2217 44.0876 93.5504C45.0695 93.941 45.6359 93.565 46.1696 93.2106C46.6279 92.9064 47.0622 92.6182 47.7147 92.8446C48.0094 92.9476 47.8847 93.1522 47.714 93.4323C47.4121 93.9276 46.9665 94.6588 48.4443 95.4799C48.9565 95.8189 49.3759 96.2807 49.6641 96.8232C50.1293 97.3747 50.6886 97.8391 51.3162 98.195C53.7394 99.8139 55.5609 98.7583 57.4163 97.683C58.7186 96.9284 60.0375 96.164 61.5933 96.3073C63.2658 96.4611 63.8994 97.4108 64.7146 98.6327L64.8233 98.7954C65.3062 99.5185 65.9194 99.9133 66.5202 100.3C66.9202 100.558 67.3147 100.812 67.6619 101.157C68.34 101.921 68.8771 102.8 69.2484 103.752C70.027 105.285 71.267 106.535 72.7938 107.326C73.9062 107.909 74.0601 108.197 73.34 109.437L73.3438 109.453C72.877 110.258 72.771 111.039 72.6637 111.829C72.5134 112.936 72.3607 114.061 71.2092 115.293C70.5039 116.048 70.1618 116.849 69.8284 117.629C69.4299 118.561 69.0439 119.465 68.0647 120.226C66.7244 121.223 65.3288 122.143 63.8847 122.981C62.9596 123.552 62.5033 124.187 61.8733 125.064C61.4203 125.695 60.8773 126.45 60.0058 127.396C59.6783 127.752 59.3741 128.072 59.0929 128.366C57.1931 130.36 56.3499 131.245 56.5858 134.78C56.8624 138.962 56.6351 138.587 55.2195 136.248C55.0594 135.984 54.884 135.694 54.6925 135.383C54.5571 135.163 54.4145 134.961 54.274 134.761C53.7082 133.96 53.1765 133.205 53.2922 131.544C53.6383 126.564 54.4913 124.291 55.0778 122.729C55.5792 121.393 55.886 120.575 55.5152 119.028C55.149 117.502 55.4011 116.807 55.6457 116.133C55.8048 115.694 55.9608 115.265 55.9417 114.62C55.895 113.008 55.2037 112.389 54.3941 111.663C54.184 111.475 53.966 111.279 53.7491 111.058L53.6903 110.998C53.6217 110.929 53.5716 110.877 53.5257 110.823C53.4035 110.68 53.3099 110.511 52.9675 109.895C52.6933 109.402 52.2593 108.621 51.5242 107.338C50.4881 105.528 51.3746 103.793 52.0618 102.448C52.7916 101.019 53.2966 100.031 51.034 99.8613C49.3962 99.741 49.075 98.9689 48.7856 98.2731C48.618 97.8702 48.4609 97.4928 48.0653 97.282C47.181 96.8112 47.1246 96.7898 46.9717 96.7318C46.8106 96.6707 46.5422 96.5688 45.0842 95.857C44.8973 95.7652 44.7309 95.6811 44.5793 95.6045C43.6342 95.1268 43.2668 94.941 42.0993 94.9811C41.6294 94.9976 41.3319 94.7611 40.8995 94.4172C40.5301 94.1236 40.0623 93.7516 39.3044 93.3918C38.879 93.1892 37.735 91.581 36.8011 90.2682C36.1897 89.4086 35.6683 88.6757 35.4977 88.5468C34.9893 88.166 34.9144 88.9795 34.8395 89.794C34.8056 90.1622 34.7717 90.5304 34.6978 90.7888C34.2398 92.3905 32.6742 87.9031 32.4779 87.3405C32.4653 87.3045 32.4584 87.2845 32.4577 87.2833C31.1753 85.144 31.0326 84.9422 30.8718 84.7146C30.7963 84.6079 30.7169 84.4955 30.514 84.1749C30.1764 83.6421 30.1567 83.1072 30.1314 82.4204C30.104 81.6732 30.0699 80.7462 29.6125 79.4467C29.369 78.7517 29.3532 77.9579 29.3365 77.1141C29.2875 74.6425 29.23 71.7427 23.4147 69.6427C23.023 69.5024 22.6989 69.3732 22.4253 69.2641C21.4022 68.8559 21.084 68.7289 20.5713 69.3577C20.4879 69.4609 20.4099 69.5748 20.3366 69.6821C20.1591 69.9412 20.0082 70.1616 19.8712 70.0978C19.751 70.0415 19.7446 69.7659 19.7366 69.4186C19.7201 68.6953 19.6964 67.6607 18.6219 67.6458C18.0558 67.6376 17.9374 67.906 17.7077 68.4271C17.5416 68.8042 17.3171 69.3134 16.8226 69.9458C16.5882 70.2456 16.549 70.6607 16.5098 71.0751C16.4562 71.6417 16.4027 72.2074 15.8508 72.4756C15.191 72.7968 14.6927 73.043 14.3117 73.2313C13.3053 73.7287 13.1161 73.8222 12.9252 73.8258C12.8811 73.8266 12.8368 73.8226 12.7823 73.8177C12.736 73.8136 12.6823 73.8088 12.6151 73.8056C12.9114 73.2785 13.204 73.0226 13.5327 72.7354C13.8857 72.4267 14.2803 72.0819 14.7659 71.3252C15.1328 70.7527 14.9566 70.4719 14.8185 70.2519C14.7715 70.1768 14.7288 70.1089 14.7136 70.0389C14.5929 69.4843 13.8857 69.2895 13.1861 69.0968C12.5531 68.9224 11.9263 68.7496 11.7458 68.3137C11.6573 68.0985 11.5753 67.9321 11.5092 67.7979C11.4004 67.5772 11.3347 67.4439 11.3543 67.3246C11.3842 67.1428 11.6124 66.9937 12.1885 66.6171C12.4079 66.4737 12.6779 66.2973 13.0065 66.0736C13.3637 65.8304 13.5955 65.6499 13.5679 65.3136C13.5596 65.2169 13.5571 65.1235 13.5547 65.0341C13.5427 64.5831 13.5334 64.2336 12.7889 64.0567C12.2438 63.9253 11.8513 63.9384 11.5596 63.9482C11.0338 63.9657 10.8357 63.9724 10.6628 63.101C10.6367 63.0002 10.6365 62.8944 10.6623 62.7935C10.6881 62.6926 10.739 62.5999 10.8104 62.524C10.8817 62.4481 10.9711 62.3916 11.0702 62.3596C11.1694 62.3275 11.275 62.3212 11.3772 62.341C11.6702 62.3942 11.8806 62.4518 12.0509 62.4985C12.4009 62.5942 12.5819 62.6437 12.9628 62.5139C14.0914 62.1339 13.605 60.9616 12.6559 60.4296C11.1741 59.5986 11.5458 59.3412 12.4512 58.7142C13.0394 58.3071 13.8526 57.7439 14.5293 56.7664C15.2235 55.7629 15.949 56.0858 16.8636 56.4927C17.4398 56.7491 18.091 57.039 18.8566 57.0514C21.9829 57.112 22.2925 57.5436 22.6379 58.0251C22.8343 58.2988 23.0423 58.5886 23.7861 58.8355C24.2483 58.9891 24.5527 59.1925 24.8058 59.3616C25.2501 59.6585 25.5366 59.85 26.2409 59.4815C27.5789 58.6082 28.8669 57.6605 30.0989 56.6429C30.7983 56.0559 31.6316 55.6504 32.5252 55.4621C33.4098 55.2955 34.3246 55.4732 35.0826 55.9589C36.1365 56.3729 37.0571 55.7966 37.9545 55.2349C38.0523 55.1737 38.1498 55.1127 38.2472 55.0531C37.7227 55.228 37.1728 55.3316 36.6121 55.3575C35.7435 55.3925 34.8786 55.2272 34.0842 54.8741C33.5563 54.6396 33.0689 54.3264 32.6381 53.9465C30.8926 54.2106 28.9477 55.8713 27.2131 57.3525C26.8319 57.678 26.4607 57.995 26.1041 58.2864C25.5919 58.7051 25.3229 58.4979 24.9804 58.2339C24.7663 58.0691 24.5235 57.8819 24.1747 57.8114C23.8291 57.7407 23.6734 57.5574 23.4828 57.333C23.0444 56.8172 22.4213 56.0839 18.8813 55.9998C18.5623 55.9924 18.1366 55.8198 17.655 55.6246C16.3622 55.1006 14.6669 54.4135 13.5546 56.319C12.9988 57.2714 12.5305 57.5835 11.9775 57.9522C11.6269 58.186 11.2423 58.4425 10.7797 58.8992C10.1802 59.4891 11.0029 60.5208 11.6689 60.8676C12.3681 61.2324 13.1632 62.0342 11.8522 61.5088C11.6348 61.4173 11.3989 61.3778 11.1635 61.3937C10.928 61.4097 10.6996 61.4804 10.4965 61.6005C10.2933 61.7205 10.1211 61.8865 9.9936 62.085C9.8661 62.2836 9.78685 62.5092 9.7622 62.7438C9.69095 63.4088 10.0558 64.6818 10.7626 64.8443C10.8495 64.8643 11.0818 64.8959 11.3583 64.9333C11.7104 64.9809 12.134 65.0383 12.4203 65.0941C12.8944 65.1859 12.5654 65.3722 12.0599 65.6583C11.4298 66.0152 10.5254 66.5272 10.5602 67.205C10.6957 69.8219 12.7064 70.1876 13.4474 70.3224C13.5893 70.3481 13.6846 70.3655 13.7114 70.3885C13.7878 70.4957 13.8348 70.621 13.8476 70.7521C13.8605 70.8832 13.8387 71.0152 13.7845 71.1352C13.3958 71.6529 12.9507 72.1257 12.4574 72.545C12.009 72.8585 11.305 73.8341 11.761 74.3899C12.5835 75.3956 14.2542 74.4652 15.9473 73.5224C16.1606 73.4037 16.3747 73.2845 16.587 73.1691C17.3651 72.7445 17.4534 71.8743 17.347 70.9727C17.3048 70.6 17.483 70.4852 17.7167 70.3346C17.9772 70.1668 18.3068 69.9544 18.4766 69.2903C18.6666 68.5569 18.8632 68.8837 18.9174 69.5401C18.9395 69.8034 18.9383 70.0053 18.9372 70.1744C18.9349 70.5495 18.9336 70.7629 19.191 71.1257C19.4484 71.4895 19.6536 71.5427 20.0289 71.2976C20.6399 70.8995 20.9016 70.6042 21.0672 70.4175C21.1621 70.3104 21.2255 70.239 21.3049 70.2041C21.4643 70.1342 21.6886 70.2119 22.3632 70.4456C22.6634 70.5496 23.053 70.6846 23.5657 70.8511C24.8842 71.2787 26.0775 72.0234 27.0408 73.02C27.6266 73.7009 27.9724 74.5554 28.025 75.452C28.0802 76.1995 28.1055 76.8152 28.127 77.3428C28.1717 78.4302 28.2009 79.1429 28.4459 79.8619C28.6626 80.5204 28.8181 81.1974 28.9104 81.8844C28.9716 84.1297 29.5115 85.0818 29.9097 85.784C30.13 86.1724 30.307 86.4845 30.3354 86.8966C30.5417 87.2696 30.8056 87.5753 31.0587 87.8686C31.292 88.1388 31.5161 88.3983 31.6778 88.6902C31.745 88.8118 31.846 89.0434 31.9741 89.3372C32.4876 90.5151 33.4363 92.6913 34.3929 92.7657C35.039 92.8164 35.3689 92.1307 35.609 91.6318C35.7925 91.2505 35.9234 90.9783 36.1029 91.2277C36.8734 92.3126 37.6557 93.2775 38.4835 94.2983C38.6762 94.5361 38.8715 94.7769 39.0697 95.0229C39.7315 95.3716 40.1708 95.6932 40.5176 95.9472C41.1472 96.4081 41.4722 96.646 42.2703 96.4175C42.9183 96.2311 43.3166 96.4876 43.9615 96.9029C44.5751 97.298 45.4116 97.8367 46.8987 98.2748C47.5274 98.4574 47.6667 98.7316 47.885 99.1611C48.0075 99.4021 48.1547 99.6919 48.4272 100.042C48.9404 100.702 50.5123 100.935 50.9423 100.997C51.0035 101.007 51.0415 101.013 51.0502 101.016C51.557 101.19 51.2765 101.663 50.8488 102.385C50.3281 103.264 49.5894 104.51 49.7876 106.033C49.9785 107.154 50.3835 108.228 50.9808 109.196C51.1555 109.532 51.2933 109.832 51.4205 110.111C51.7649 110.863 52.0313 111.446 52.7412 112.085C54.9015 114.032 54.7342 114.487 54.3973 115.401C54.1871 115.972 53.9109 116.722 54.093 118.126C54.3093 119.026 54.3701 119.956 54.2726 120.875C54.1349 121.671 53.769 122.466 53.4165 123.229C53.0757 123.968 52.7476 124.68 52.6509 125.34C52.4004 127.066 52.3728 127.484 52.3348 128.06C52.3165 128.338 52.2957 128.654 52.2462 129.171C52.2145 129.501 52.1648 129.858 52.113 130.23C51.893 131.807 51.6353 133.655 52.5588 134.947C53.3055 135.992 55.5475 138.89 56.4139 139.352C56.5696 139.44 56.7505 139.473 56.9276 139.447C57.1046 139.419 57.2673 139.334 57.3895 139.203C58.135 138.484 58.0918 137.209 58.0562 136.16C58.049 135.948 58.0422 135.746 58.0422 135.559L58.042 134.657C58.0413 132.254 58.0412 132.068 58.1068 131.908C58.1127 131.892 58.1193 131.878 58.1264 131.863L58.1372 131.838C58.4353 131.156 58.9101 130.733 59.4972 130.209C60.0644 129.704 60.7366 129.104 61.4555 128.088C62.2907 126.756 63.2242 125.488 64.2485 124.294C65.0722 123.863 69.2009 121.265 69.9922 120.163C70.6093 119.393 71.0874 118.521 71.4049 117.587C71.6324 117.01 71.9881 116.665 72.3645 116.301C72.9626 115.722 73.613 115.094 73.8853 113.395C73.9517 112.426 74.1432 111.47 74.4553 110.551C75.3246 108.756 75.4956 107.615 74.6947 106.831C74.1527 106.299 73.6261 106.018 73.1112 105.744C72.0898 105.198 71.1153 104.678 70.1623 102.274ZM51.5527 37.0748C51.4913 37.3553 51.4641 37.4802 51.3257 37.2401C50.2854 35.4332 46.0997 35.5976 46.2384 36.9694C46.2057 37.5266 46.1016 38.0774 45.9287 38.6081C45.6959 39.7105 46.3202 40.2457 46.8468 40.6972C47.2977 41.0837 47.6769 41.4088 47.3851 41.9759C47.277 42.3309 47.3047 42.7134 47.4627 43.0492C47.6206 43.3849 47.8977 43.6501 48.2401 43.7932C48.6284 44.002 48.8847 44.1023 49.0439 44.1644C49.1814 44.2183 49.2464 44.2436 49.2611 44.2863C49.2742 44.3244 49.2473 44.3763 49.1965 44.4745C49.1104 44.6407 48.9558 44.9396 48.8101 45.5289C48.7569 45.7247 48.7439 45.9292 48.7721 46.1301C48.8001 46.3311 48.8686 46.5242 48.9733 46.698C49.0781 46.8717 49.2169 47.0224 49.3816 47.141C49.5461 47.2596 49.7331 47.3437 49.9311 47.388C50.6285 47.7201 51.3589 47.9777 52.1104 48.1566C53.201 48.395 55.5237 46.5625 54.3904 45.4728C54.3544 45.4384 54.3033 45.4119 54.2526 45.3856C54.1453 45.3301 54.039 45.275 54.0797 45.146C54.1071 45.0625 54.2141 45.0042 54.3224 44.945C54.372 44.918 54.4218 44.8908 54.4645 44.861C54.7342 44.6782 54.9351 44.5654 55.0962 44.4749C55.5708 44.2083 55.7013 44.135 56.2324 43.038C56.5649 42.3492 56.715 41.6966 56.1678 41.1627C55.7906 40.7929 55.2576 40.9059 54.9741 40.9659C54.8993 40.9818 54.8419 40.994 54.8093 40.9926C54.7726 40.9835 54.7394 40.9641 54.7133 40.9369C54.6872 40.9096 54.6694 40.8754 54.662 40.8385C54.6545 40.8014 54.6577 40.763 54.6712 40.7278C54.6846 40.6925 54.7078 40.6618 54.7381 40.6392C55.9412 40.3004 57.0181 39.6148 57.8341 38.668C58.6768 37.7427 58.4887 35.8455 57.5292 35.8256C56.8699 35.7431 56.2004 35.8113 55.5712 36.0251C54.991 36.2839 54.5449 35.9998 54.1014 35.7174C53.6298 35.4171 53.1611 35.1186 52.5369 35.476C51.8117 35.8912 51.6443 36.6563 51.5527 37.0748ZM47.3791 37.3352C47.4456 37.1653 47.4737 37.0933 48.2258 36.9903C48.6701 36.9108 49.1282 36.9877 49.5221 37.208C49.916 37.4284 50.2214 37.7785 50.3861 38.1987C50.8906 39.3596 52.497 38.9701 52.7611 37.0368C52.835 36.5164 52.9435 36.5794 53.3754 36.8299C53.5877 36.9531 53.8781 37.1217 54.2811 37.2886C55.0014 37.5869 55.3822 37.4181 55.8169 37.2254C56.1005 37.0996 56.4072 36.9637 56.8461 36.9409C57.4408 36.9105 57.1159 38.8314 54.5063 39.541C54.3442 39.5766 54.191 39.645 54.0562 39.7418C53.9215 39.8387 53.8079 39.9621 53.7226 40.1044C53.6372 40.2467 53.5817 40.405 53.5597 40.5694C53.5376 40.734 53.5494 40.9012 53.5943 41.061C53.5952 41.2292 53.6382 41.3944 53.7194 41.5417C53.8005 41.6891 53.9172 41.8137 54.0589 41.9044C54.2005 41.995 54.3626 42.0488 54.5303 42.0607C54.6981 42.0728 54.8661 42.0426 55.0193 41.973C55.139 41.9331 55.4278 41.8657 55.3204 42.2305C55.0201 43.2487 54.6798 43.4657 54.0631 43.8588C53.8955 43.9656 53.7076 44.0854 53.4945 44.2378C52.63 44.8572 52.5949 45.4405 53.1896 45.9972C53.4024 46.1967 53.3948 46.2252 53.1715 46.4219C53.1231 46.4646 53.0783 46.5045 53.0365 46.5419C52.7814 46.7694 52.6396 46.8959 52.4751 46.943C52.2689 47.002 52.027 46.9362 51.4823 46.7881C51.3753 46.759 51.2566 46.7267 51.1243 46.6917C51.0295 46.6669 50.9346 46.6448 50.8417 46.6231C50.0009 46.427 49.3179 46.2678 50.3206 44.5133C50.8136 43.6499 50.1493 43.3702 49.4872 43.0914C48.9145 42.8503 48.3435 42.6098 48.5251 41.993C48.5537 41.8956 48.584 41.8054 48.6126 41.7205C48.7512 41.3087 48.847 41.0237 48.4871 40.663C48.1244 40.3004 47.8362 40.0379 47.6124 39.834C47.035 39.3082 46.8854 39.172 46.9908 38.7126C47.0779 38.264 47.1999 37.8228 47.3556 37.3931C47.3644 37.3726 47.3719 37.3534 47.3791 37.3352ZM50.1591 66.2607C50.2733 65.3302 50.7393 64.4787 51.4615 63.881C52.5379 63.1571 53.6703 64.489 53.9154 65.7126C54.0134 66.1993 53.602 66.5813 52.9512 67.1852L52.84 67.2886C52.4822 67.6216 52.4062 67.7988 52.3355 67.9636C52.2869 68.0771 52.2406 68.1848 52.1066 68.3336C52.016 68.4416 51.8978 68.523 51.7648 68.5691C51.6317 68.6153 51.4885 68.6246 51.3505 68.5959C51.2125 68.5673 51.0849 68.5019 50.9812 68.4065C50.8775 68.3111 50.8015 68.1894 50.7614 68.0543C50.489 67.4829 50.2867 66.8807 50.1591 66.2607ZM51.4578 67.1434C51.46 67.1572 51.4619 67.1687 51.4685 67.1731C51.5032 67.1964 51.6691 67.0235 52.7057 65.9431L52.7801 65.8655C53.0813 65.552 52.3365 64.3455 51.9337 64.7255C50.8616 65.7383 50.9631 65.9731 51.2873 66.722C51.3374 66.8378 51.3928 66.9658 51.4501 67.111C51.4543 67.1216 51.4562 67.1331 51.4578 67.1434Z" fill="#4952FF"/>
<path id="Subtract_3" fill-rule="evenodd" clip-rule="evenodd" d="M147.102 46.2845C146.568 46.2443 146.006 46.2651 145.407 46.3848C144.168 46.6737 142.952 47.0509 141.767 47.5134C141.076 47.7574 140.214 47.7596 139.342 47.7618C138.128 47.7648 136.895 47.7679 136.083 48.4216C135.633 48.784 135.621 48.9907 135.552 50.1519L135.546 50.2513C135.518 50.7418 135.382 50.7321 134.464 50.6672C134.382 50.6613 134.292 50.6549 134.196 50.6484C132.875 50.5582 132.581 51.1605 132.454 51.4683C132.278 51.8986 132.41 52.5141 132.504 52.9541C132.567 53.2524 132.614 53.47 132.536 53.4946C132.368 53.5482 131.855 53.2944 131.566 53.1518C131.497 53.1176 131.44 53.0893 131.404 53.0738C131.316 53.0238 131.214 53.0014 131.113 53.0094C131.011 53.0173 130.914 53.0553 130.834 53.1184C130.744 53.1897 130.598 53.459 130.435 53.7599C130.113 54.3498 129.726 55.0612 129.571 54.6384C129.428 54.2441 129.418 53.7777 129.409 53.3387C129.4 52.8164 129.39 52.333 129.156 52.0563C128.248 50.9838 127.136 52.2463 126.644 52.9921C126.212 53.6523 126.204 54.4994 126.197 55.3501C126.189 56.1386 126.182 56.9302 125.837 57.5787C125.507 58.3585 125.126 59.1156 124.697 59.8454C124.279 60.4277 123.32 60.4372 122.197 60.4482C121.671 60.4533 121.109 60.4588 120.551 60.5237C119.954 60.5942 119.511 60.691 119.125 60.7755C118.355 60.944 117.809 61.0634 116.716 60.8267C115.155 60.49 114.8 61.583 114.515 62.4607C114.372 62.9026 114.247 63.2898 113.994 63.4126C113.402 63.6513 112.916 64.0947 112.624 64.6619L112.614 64.6829C112.511 64.9198 112.472 65.007 111.302 64.8851C111.169 64.8689 111.045 64.8085 110.95 64.7134C110.855 64.6184 110.794 64.4942 110.778 64.3607C110.778 64.1712 110.677 63.87 110.578 63.5703C110.485 63.2948 110.393 63.0204 110.381 62.836C110.365 62.589 110.7 62.5348 111.046 62.798C111.352 63.0069 111.717 63.1141 112.087 63.1041C112.458 63.094 112.816 62.9675 113.11 62.7424C113.405 62.5173 113.621 62.205 113.728 61.85C113.835 61.495 113.828 61.1154 113.706 60.765C113.635 60.4521 113.324 60.156 112.909 59.7603C112.85 59.7043 112.789 59.6464 112.727 59.586C110.614 57.5378 107.929 55.0042 105.087 55.7651C103.342 56.2305 101.842 57.3449 100.893 58.8802C99.8975 59.9476 99.1173 61.1972 98.5953 62.5605C98.2425 63.7992 97.5207 64.901 96.5262 65.7192C96.256 65.9709 95.9777 66.127 95.7316 66.265C95.2578 66.5308 94.9033 66.7297 94.9558 67.415C94.8627 68.5062 95.028 69.604 95.4384 70.6193C95.7101 71.4572 96.2079 71.4743 96.9166 70.9765C97.1878 70.8012 97.4975 70.6942 97.8191 70.6649C98.4113 70.5966 98.6425 71.2522 98.8835 71.9354C99.2323 72.9246 99.6016 73.9714 101.117 72.9611C101.721 72.5583 102.27 70.8388 102.442 70.1339C102.631 69.3565 102.557 68.9934 102.455 68.4975C102.397 68.2177 102.332 67.8957 102.299 67.433C102.231 67.0001 102.316 66.557 102.54 66.18C103.123 65.6527 103.596 65.0145 103.931 64.3028C103.989 64.1384 104.275 63.4934 104.896 63.7736C105.027 63.9502 105.121 64.1516 105.172 64.3659C105.222 64.58 105.229 64.8023 105.191 65.0191C104.823 65.4903 104.427 65.8084 104.084 66.0839C103.488 66.5639 103.052 66.9149 103.196 67.7218C103.578 69.8405 104.208 69.7294 104.983 69.5926C105.34 69.5296 105.728 69.4612 106.136 69.6019C106.444 69.7073 105.661 69.9933 105.538 70.0246C105.299 70.086 105.071 70.1235 104.861 70.158C104.238 70.2602 103.776 70.3362 103.679 70.93C103.653 71.0883 103.646 71.2183 103.642 71.3286C103.629 71.5948 103.622 71.745 103.356 71.8961C103.024 72.0843 102.957 72.2942 102.88 72.5355C102.792 72.8107 102.692 73.1268 102.17 73.4978C101.075 74.2759 100.781 74.406 100.317 74.2901C100.183 74.2567 100.015 74.2901 99.8362 74.3257C99.3957 74.4135 98.8873 74.5147 98.6428 73.6641C98.5972 73.1151 98.3801 72.5944 98.0224 72.1754C97.194 70.9784 95.7263 72.3388 96.225 73.9586C96.3042 74.2166 96.3783 74.4064 96.4349 74.5514C96.5936 74.9579 96.6145 75.0114 96.2203 75.2278C93.9822 76.4599 93.7294 77.0131 93.5742 77.3526C93.487 77.5434 93.4307 77.6667 93.0701 77.8051C90.6723 78.7285 90.7445 78.891 91.4266 80.0224C91.8218 80.6779 91.8066 81.1254 91.3468 81.2888C90.817 81.4822 90.2586 81.5856 89.6947 81.5947C89.4813 81.592 89.2821 81.5589 89.0957 81.5279C88.8133 81.4809 88.56 81.4388 88.3305 81.5149C87.9496 81.6412 87.7159 82.0269 87.8175 82.6549L87.9088 83.2222C88.2125 85.1099 88.2542 85.3692 88.3481 85.6075C88.363 85.6453 88.3792 85.6825 88.3979 85.7256C88.4332 85.8068 88.4778 85.9093 88.5395 86.0749C88.721 86.5603 89.7945 86.9299 90.9953 86.8615C91.3297 86.8863 91.6655 86.8373 91.9789 86.718C92.2922 86.5985 92.5756 86.4118 92.8088 86.1708C93.1084 85.8475 93.1469 85.6423 93.1826 85.452C93.2239 85.2325 93.2614 85.0329 93.6914 84.6945C94.4479 84.0974 94.6022 83.802 94.6993 83.6163C94.8339 83.3589 94.8584 83.3123 96.2231 82.9646C96.5471 82.882 96.6213 82.9931 97.234 83.9101C97.4388 84.2167 97.7041 84.6136 98.0585 85.123C98.5528 85.834 98.7069 86.4291 98.8216 86.8717C98.9577 87.3972 99.0382 87.708 99.5662 87.7431C100.502 87.8048 100.896 86.8881 100.848 86.1072C100.815 85.8448 100.886 85.5799 101.045 85.369C101.421 84.8789 101.152 84.7131 100.757 84.4697C100.575 84.3574 100.366 84.2286 100.181 84.0438C99.9908 83.8538 98.9202 82.3917 99.2375 82.1808C99.631 81.9185 100.016 82.3178 100.472 82.7885C100.772 83.0985 101.101 83.4396 101.482 83.6429C101.978 83.907 102.211 84.6451 102.446 85.3922C102.79 86.4859 103.139 87.5985 104.332 87.27C104.875 87.1208 104.868 86.2763 104.844 85.7262C104.823 85.2455 105.064 85.1465 105.6 84.9249C105.646 84.9058 105.695 84.8858 105.745 84.8646C105.779 84.8503 105.814 84.8354 105.85 84.8199C105.945 84.7781 106.056 84.8655 105.998 84.9634C105.68 85.5012 105.845 86.0574 106.045 86.7384C106.073 86.8309 106.1 86.9256 106.128 87.023C106.547 88.5026 107.886 88.2436 108.906 88.0464C109.503 87.9309 109.991 87.8368 110.118 88.1259C110.195 88.2742 110.219 88.4442 110.188 88.6084C110.157 88.7725 110.07 88.9212 109.944 89.0303C109.779 89.198 109.653 89.3514 109.545 89.484C109.286 89.8022 109.123 90.0007 108.749 89.9879C106.639 89.9137 105.583 89.6011 104.882 89.3938C104.058 89.1496 103.726 89.0517 102.752 89.6621C102.489 89.8263 102.325 90.1531 102.194 90.4122C102.058 90.6823 101.959 90.8786 101.826 90.7394C101.448 90.3432 101.194 90.0669 101.014 89.8696C100.632 89.4519 100.574 89.389 100.338 89.2954C99.6262 89.0165 99.1968 88.8601 98.9311 88.7634C98.6065 88.6453 98.5257 88.616 98.4745 88.5607C98.4579 88.5427 98.4442 88.5219 98.4262 88.4944C98.3481 88.3759 98.1874 88.1318 97.347 87.4438C96.3913 86.662 91.5767 87.4752 90.3882 87.8067C89.9445 87.9948 89.5695 88.3153 89.3147 88.7244C89.1365 89.0687 88.8741 89.1244 88.5413 89.195C88.0367 89.302 87.37 89.4434 86.5892 90.6776C84.4279 94.0976 84.3386 94.6021 84.6084 96.0983C84.6698 97.32 84.6644 98.5442 84.5923 99.7653C84.6187 100.4 84.9575 100.819 85.7187 101.759C85.834 101.902 85.9591 102.057 86.0942 102.226C88.9118 105.743 90.8274 105.183 92.0954 104.813C92.4734 104.702 92.7938 104.609 93.0634 104.645C93.997 104.771 94.7058 104.854 95.2429 104.917C96.4115 105.055 96.7675 105.096 96.8567 105.272C96.8957 105.35 96.8837 105.453 96.8663 105.601C96.8107 106.077 96.7008 107.017 98.0452 109.055C98.7178 110.075 98.6323 112.016 98.3663 113.157C98.0208 114.643 98.4035 115.296 98.822 116.009C99.1506 116.57 99.5011 117.167 99.5396 118.236C99.6826 119.729 100.286 121.139 101.268 122.273C101.604 122.739 101.798 123.249 101.974 123.715C102.424 124.896 102.764 125.79 105.042 124.964C106.254 124.526 106.52 124.329 107.819 123.371C108.212 123.08 108.7 122.72 109.338 122.262C110.041 121.726 110.563 120.988 110.834 120.148C111.223 119.162 111.375 118.932 111.544 118.673C111.707 118.422 111.888 118.147 112.316 117.137C113.003 115.52 113.873 114.598 114.591 113.837C115.477 112.898 116.129 112.206 115.919 110.763C115.767 109.714 115.611 108.909 115.487 108.276C115.221 106.904 115.112 106.343 115.539 105.871C115.935 105.379 116.284 104.851 116.584 104.295C117.099 103.598 117.57 102.868 117.99 102.11C118.37 101.328 116.087 101.332 114.802 101.334H114.791C114.322 101.334 114.062 101.003 113.841 100.608C112.642 98.4913 111.697 96.2404 111.026 93.9019C110.77 93.1799 111.026 93.5647 111.764 94.774C112.527 96.0287 112.939 96.8875 113.251 97.5383C113.754 98.5888 113.999 99.0967 115.04 99.8518C115.497 100.182 115.71 100.151 116.627 100.014C116.871 99.978 117.166 99.9342 117.528 99.8879C118.635 99.5808 119.677 99.0743 120.602 98.3935C121.217 97.9406 121.765 97.404 122.23 96.7994C122.902 96.1487 122.542 95.6832 121.923 94.946C121.581 94.5384 120.997 94.5362 120.372 94.5339C119.867 94.5319 119.335 94.5299 118.883 94.3133C118.275 94.0216 117.945 93.0241 117.79 91.5697C117.76 91.2847 117.99 91.4599 118.423 91.7881C119.107 92.3078 120.296 93.2116 121.756 93.2797C122.638 93.3209 122.949 93.4797 123.227 93.6213C123.436 93.7278 123.626 93.8246 124.025 93.8544C124.763 93.9094 125.152 94.7159 125.551 95.5454C126.006 96.491 126.475 97.4665 127.494 97.3932C127.943 97.3614 127.965 97.4232 128.138 97.9264C128.256 98.2653 128.443 98.8046 128.877 99.6504C129.936 101.715 130.454 102.802 130.752 103.427C131.099 104.152 131.146 104.253 131.401 104.536C132.46 105.715 133.809 102.944 134.122 100.576C134.278 99.3945 134.516 99.2266 135.076 98.8296C135.49 98.5365 136.08 98.1188 136.945 97.0768C138.325 95.4125 138.401 95.5854 138.727 96.3258C138.882 96.677 139.092 97.1559 139.525 97.6269C140.119 98.2718 140.661 98.4422 141.228 98.6204C141.507 98.7079 141.791 98.7972 142.09 98.9455C142.531 99.1637 143.292 99.5892 143.935 99.9489C144.473 100.249 144.934 100.507 145.046 100.554C146.37 101.098 147.295 99.0234 146.551 97.5138C146.358 97.2513 146.243 96.9404 146.216 96.6159C146.189 96.2914 146.254 95.9659 146.401 95.6756C146.597 95.2202 147.701 95.1411 148.249 95.1019L148.316 95.097C148.615 95.0751 148.942 95.0944 149.285 95.1145C151.026 95.2167 153.18 95.3435 154.156 90.252C153.93 89.2287 153.579 88.237 153.111 87.2994C152.997 87.1196 152.95 86.9045 152.983 86.6937C153.014 86.4829 153.121 86.2905 153.282 86.1518C153.296 86.1375 153.313 86.1111 153.335 86.0787C153.434 85.9302 153.616 85.6555 153.957 85.8355C154.857 86.3111 154.92 87.0905 154.971 87.7255C155.028 88.43 155.071 88.9568 156.227 88.694C157.219 88.4689 157.636 87.5825 157.957 86.3599C158.038 86.0532 157.95 85.733 157.866 85.4211C157.738 84.9512 157.617 84.5004 158.079 84.1435C158.683 83.6763 159.256 83.4504 159.778 83.2441C160.382 83.0057 160.921 82.7935 161.365 82.2654C161.845 81.5785 162.225 80.8268 162.494 80.0329C163.037 79.044 163.431 77.9807 163.665 76.877C163.671 76.8342 163.682 76.7794 163.694 76.7149C163.784 76.2512 163.972 75.2889 163.452 74.7461C163.134 74.4125 162.821 74.3281 162.526 74.2483C162.287 74.1837 162.059 74.1224 161.851 73.9339C161.153 73.3021 162.179 72.7131 163.02 72.2381C163.63 71.8941 163.809 71.6362 163.944 71.4405C164.113 71.1958 164.215 71.0485 165.01 70.9518C166.287 71.0447 167.569 70.8991 168.793 70.5224C169.041 70.4164 169.32 70.1935 169.638 69.939C170.061 69.6007 170.553 69.2063 171.138 68.9559C171.57 68.7567 171.97 68.4945 172.326 68.1778C172.052 68.9311 171.668 69.6393 171.186 70.2792C169.087 73.0713 169.956 77.6341 171.376 76.7193C172.606 75.9654 173.705 75.0166 174.63 73.9101C174.94 73.5087 174.888 72.885 174.838 72.2867C174.783 71.6491 174.732 71.0403 175.124 70.7599C175.786 70.2083 176.539 69.7774 177.349 69.4869C177.967 69.2521 178.621 69.1293 179.283 69.124C179.315 69.1274 179.347 69.1238 179.378 69.1136C179.794 68.9715 180.207 68.8641 180.589 68.7649C181.802 68.4498 182.697 68.2173 182.376 67.2136C182.31 67.0065 182.247 66.8418 182.191 66.6991C182.039 66.3045 181.952 66.0782 182.067 65.5919C182.152 65.2366 182.29 65.2908 182.989 65.6717C185.617 67.1072 187.265 64.3189 186.219 62.8854C185.431 61.9242 184.725 60.8977 184.11 59.8169C183.778 59.0817 183.271 58.439 182.632 57.9452C181.995 57.4514 181.245 57.1214 180.45 56.984C179.743 56.8536 179.316 57.102 178.953 57.3125C178.624 57.5036 178.35 57.6634 177.968 57.4799C177.211 57.1171 176.692 57.2788 175.807 57.5543C175.419 57.6755 174.959 57.8189 174.377 57.9492C174.129 58.0049 174.109 57.9102 174.065 57.6905C174.006 57.4002 173.904 56.8916 173.169 56.223C172.281 55.4137 171.229 55.6748 170.491 55.8582C169.95 55.9927 169.576 56.0854 169.559 55.6825C169.503 54.1827 168.587 53.5969 167.67 53.0095C167.025 52.5967 166.379 52.1832 166.028 51.4512C165.459 50.2624 164.166 49.8136 162.862 49.3608C162.22 49.1381 161.575 48.9144 161.012 48.6012C160.473 48.2574 159.922 47.9318 159.361 47.6249C159 48.0562 158.592 48.4541 158.144 48.8076C158.662 49.0423 159.259 49.3604 159.96 49.7839C160.741 50.3146 161.616 50.6942 162.538 50.903C163.964 51.1567 164.597 51.9806 165.135 52.6811C165.379 52.9986 165.604 53.2907 165.873 53.4927C165.962 53.5586 166.096 53.6314 166.257 53.7183C166.906 54.0686 167.979 54.6482 168.12 55.9285C168.221 56.8405 168.998 57.7335 170.907 57.2585C170.951 57.2475 171.003 57.2305 171.061 57.2115C171.379 57.1073 171.878 56.9426 172.292 57.3763C172.494 57.5731 172.642 57.8193 172.721 58.0907C172.778 58.3203 172.882 58.5354 173.027 58.7227C173.171 58.9099 173.353 59.0652 173.561 59.1786C173.768 59.292 173.997 59.3611 174.232 59.3815C174.468 59.4019 174.705 59.3732 174.93 59.2972C175.239 59.2029 175.504 59.1186 175.734 59.0451C176.895 58.6752 177.178 58.5849 177.978 58.9068C178.2 58.9758 178.434 58.9911 178.663 58.9514C178.892 58.9117 179.108 58.8184 179.293 58.6788C180.067 58.0646 180.693 58.5174 181.484 59.0882C181.634 59.1963 181.79 59.3086 181.953 59.4188C182.287 59.6438 182.46 59.9527 182.74 60.4507C183.079 61.0551 183.574 61.938 184.702 63.2872C184.851 63.4142 184.964 63.5781 185.028 63.7624C185.093 63.9467 185.108 64.145 185.072 64.337C184.763 65.2656 184.038 64.8387 183.275 64.3898C182.538 63.9557 181.767 63.5011 181.302 64.2325C180.99 64.6242 180.795 65.0968 180.741 65.5951C180.687 66.0934 180.776 66.5969 180.997 67.0464C181.112 67.4339 180.367 67.5635 179.316 67.7461C178.019 67.9712 176.26 68.277 175.082 69.2466C174.905 69.3919 174.734 69.5011 174.574 69.6027C173.892 70.0382 173.424 70.3365 173.649 72.7682C173.718 73.4913 173.159 73.9508 172.366 74.6017C172.074 74.841 171.751 75.1061 171.417 75.4197C171.014 75.7963 171.25 73.5782 171.257 73.5207C171.319 72.1708 171.6 71.6938 173.125 69.4461C173.894 68.3108 174.116 66.5961 172.753 66.7623C172.026 66.9442 171.347 67.2772 170.758 67.7399C169.67 68.4999 168.53 69.1839 167.347 69.7871C166.288 69.9308 165.219 69.9895 164.151 69.9629C163.47 70.1218 163.228 70.3852 162.87 70.7733C162.57 71.0999 162.188 71.5148 161.396 72.0301C159.441 73.2983 161.016 74.8801 162.21 75.2439C162.602 75.3627 162.606 75.375 162.597 75.794C162.564 77.3763 162.474 77.544 161.821 78.7586C161.748 78.8937 161.669 79.042 161.581 79.2064C160.341 81.5443 160.005 81.8721 159.229 82.1191C156.143 83.1019 156.351 84.3758 156.545 85.5754C156.663 86.3007 156.776 86.999 156.155 87.5892C155.959 87.7755 155.938 87.6543 155.851 87.1296C155.818 86.9346 155.776 86.6836 155.712 86.3722C155.582 85.7405 153.879 83.5773 152.426 85.3852C152.359 85.4689 152.296 85.5456 152.238 85.6169C151.946 85.9743 151.769 86.1917 151.708 86.4374C151.614 86.8168 151.797 87.2649 152.265 88.4049C152.424 88.794 152.617 89.2645 152.843 89.8397C153.223 90.8097 151.786 93.558 151.069 93.6749C150.67 93.7397 150.118 93.7234 149.507 93.7054C147.673 93.6514 145.317 93.582 145.034 95.6442C144.837 97.0816 145.143 97.5869 145.383 97.9808C145.58 98.3061 145.732 98.5554 145.515 99.1915C145.449 99.3824 145.216 99.2363 144.732 98.9345L144.619 98.8638C143.027 97.8745 142.118 97.6149 141.503 97.4393C140.518 97.1578 140.286 97.0917 139.204 94.584C138.984 94.0739 137.753 94.5698 137.244 95.0533C136.324 95.9278 136.08 96.235 135.876 96.4928C135.683 96.7357 135.526 96.9348 134.869 97.5233C133.284 98.944 133.251 99.134 133.125 99.8755C133.034 100.415 132.892 101.247 132.066 103.06C131.996 103.214 131.936 103.096 131.91 103.046C129.68 98.7391 129.609 98.4844 129.461 97.9387C129.4 97.7171 129.327 97.4464 129.089 96.8346C129.05 96.6897 128.98 96.5548 128.884 96.439C128.789 96.3233 128.669 96.2292 128.535 96.1631C128.4 96.097 128.252 96.0604 128.102 96.0559C127.952 96.0512 127.803 96.0787 127.664 96.1363C127.262 96.2541 127.2 96.2161 126.973 95.8656C126.749 95.5187 126.555 95.2139 126.384 94.9453C125.664 93.8134 125.35 93.3224 124.909 93.0288C124.574 92.8057 124.164 92.6953 123.442 92.5012C123.281 92.4579 123.102 92.41 122.909 92.3563C122.511 92.2459 122.235 92.2258 121.992 92.2079C121.529 92.174 121.18 92.1484 120.31 91.5279C118.902 90.5218 116.96 89.6621 116.899 91.2961C116.787 94.3133 117.469 95.9777 121.224 95.5796C121.301 95.5739 121.379 95.5944 121.443 95.6378C121.507 95.6812 121.556 95.745 121.579 95.819C121.602 95.8929 121.6 95.9727 121.574 96.0453C121.546 96.1181 121.496 96.1796 121.429 96.2199C121.363 96.2542 121.335 96.2916 121.292 96.3514C121.149 96.5468 120.832 96.9825 118.389 98.3394C117.477 98.7607 116.49 99.002 115.485 99.05C114.548 98.0684 114.194 97.2889 113.772 96.3577C113.315 95.3503 112.776 94.1651 111.332 92.3544C110.929 91.849 109.622 91.9535 109.725 92.7847C110.309 94.9664 111.086 97.0918 112.046 99.1355C112.162 99.3801 112.269 99.6065 112.367 99.8161C113.289 101.777 113.514 102.257 114.741 102.346C115.113 102.372 115.444 102.364 115.714 102.357C116.351 102.34 116.644 102.332 116.299 102.821C116.201 102.956 116.091 103.133 115.948 103.363C115.659 103.828 115.235 104.51 114.505 105.512C113.943 106.283 114.098 107.215 114.304 108.448C114.32 108.538 114.335 108.629 114.35 108.722C114.808 111.557 114.479 111.855 113.802 112.47C113.449 112.79 113.001 113.196 112.52 114.092C112.024 115.019 111.595 115.821 111.225 116.515C109.235 120.24 108.902 120.865 108.392 121.257C108.289 121.336 108.179 121.405 108.047 121.489C107.711 121.701 107.234 122.004 106.368 122.779C105.78 123.262 105.102 123.624 104.373 123.843C103.588 124.124 103.531 123.952 103.4 123.562L103.384 123.513C102.999 122.361 102.45 121.604 101.962 120.931C101.308 120.03 100.765 119.279 100.874 117.933C100.957 116.896 100.492 116.16 99.8741 115.181C99.7855 115.041 99.6931 114.895 99.5994 114.743C99.2821 114.23 99.5994 113.011 99.759 112.431C99.8367 111.958 99.866 111.479 99.8464 111C99.9418 109.663 99.4211 108.862 98.8013 107.908C98.6496 107.674 98.4919 107.432 98.3359 107.17C98.0107 106.623 97.9893 106.434 97.9254 105.871C97.8933 105.589 97.8507 105.213 97.7536 104.649C97.6333 103.946 96.7317 103.866 95.6472 103.771C95.0178 103.715 94.3267 103.655 93.6914 103.463C92.8434 103.207 92.2518 103.412 91.6809 103.61C90.5299 104.008 89.4626 104.378 86.5474 100.889C86.4854 100.815 86.425 100.745 86.3666 100.676C85.9509 100.19 85.641 99.8273 85.681 99.2742C85.8144 97.4294 85.7653 96.4656 85.7344 95.8579C85.715 95.4775 85.7027 95.2367 85.7468 95.0066C85.8228 94.6094 86.0667 94.2442 86.7315 93.2488L86.8105 93.1305C87.1878 92.566 87.3663 92.1614 87.5217 91.8092C87.6895 91.4288 87.8303 91.1097 88.1652 90.7166C88.4449 90.3883 88.7461 90.3356 89.0611 90.2805C89.4726 90.2084 89.9079 90.1323 90.3502 89.4322C90.7239 88.8402 91.3048 88.7796 92.3516 88.6708C92.8165 88.6223 93.3734 88.5644 94.0448 88.4461C96.6942 87.9796 97.0152 88.4831 97.3725 89.0435C97.5829 89.3735 97.8058 89.7232 98.524 89.9062C99.5969 90.1804 99.9201 90.5046 100.426 91.0119C100.665 91.2516 100.946 91.5323 101.365 91.868C102.262 92.5863 102.645 91.8093 102.982 91.1253C103.112 90.8622 103.235 90.6129 103.378 90.4677C103.807 90.0317 103.89 90.062 104.321 90.2194C104.679 90.35 105.277 90.5684 106.513 90.6805C107.372 90.8117 108.242 90.8712 109.112 90.8581C109.697 90.8306 109.904 90.5555 110.149 90.2311C110.217 90.1407 110.288 90.0465 110.371 89.9528C110.453 89.8597 110.543 89.7756 110.634 89.6914C111.019 89.3335 111.408 88.9726 111.172 87.9084C111.161 87.8555 111.15 87.8036 111.139 87.7532C111.004 87.117 110.912 86.6853 109.876 86.833C109.481 86.8894 109.153 86.9406 108.877 86.9834C107.994 87.121 107.665 87.1723 107.483 87.0321C107.376 86.9488 107.321 86.7978 107.233 86.5569C107.211 86.4985 107.188 86.434 107.161 86.3646C106.848 85.5429 106.737 85.2151 107.143 85.123C107.234 85.1029 107.335 85.0329 107.454 84.9506C107.639 84.8229 107.868 84.6651 108.166 84.6166C109.423 84.4009 110.696 84.2762 111.972 84.2433C113.257 84.6043 114.002 84.4969 114.091 84.0238C114.172 83.5878 113.808 83.2874 113.391 82.944C113.171 82.7636 112.938 82.5714 112.747 82.3414C112.534 82.0801 112.632 81.8548 112.784 81.5082L112.8 81.4716L112.826 81.4104C113.307 80.2884 112.154 80.2172 110.85 80.2409C109.035 80.2751 108.57 80.563 107.88 81.5462C107.769 81.7025 107.661 81.8616 107.554 82.0193C106.984 82.8539 106.438 83.6521 105.875 83.8167C104.095 84.3354 104.065 84.6717 104.015 85.6046C103.987 86.1328 103.866 87.0743 103.255 85.1629C103.231 84.7053 103.098 84.2599 102.868 83.8635C102.638 83.4671 102.318 83.1309 101.933 82.8829C101.431 82.5236 101.11 82.2056 100.848 81.9459C100.375 81.4777 100.093 81.1985 99.2907 81.2071C98.3008 81.2175 97.7422 82.5817 100.041 84.8997C100.18 85.0391 100.174 85.0555 100.137 85.1711C100.105 85.2721 100.048 85.4488 100.041 85.8497C100.034 86.3789 99.8312 87.0125 99.6697 86.8947C99.5953 86.8405 99.5434 86.6229 99.4813 86.3629C99.4086 86.0582 99.3218 85.6953 99.1691 85.4697C98.3676 84.2712 97.9189 83.4667 97.6236 82.937C97.3088 82.3723 97.168 82.12 96.9597 82.0361C96.7914 81.9683 96.5792 82.0101 96.1955 82.0857C96.0086 82.1224 95.7811 82.1672 95.4983 82.2112C95.1205 82.257 94.7589 82.3918 94.4433 82.6045C94.1277 82.8173 93.867 83.1018 93.6828 83.4348C93.6781 83.7697 93.4771 83.9058 93.2362 84.0688C92.9484 84.2635 92.6036 84.4969 92.4697 85.1543C92.4471 85.293 92.385 85.4223 92.2908 85.5267C92.1966 85.631 92.0743 85.7058 91.9386 85.7424C90.5678 86.2174 89.1257 86.1955 89.0022 84.647C88.9542 84.0441 88.8612 83.5879 88.787 83.2241C88.7319 82.954 88.6872 82.735 88.6792 82.5447C88.6698 82.3338 88.7734 82.3489 89.0519 82.3894C89.5036 82.4551 90.4153 82.5877 92.0507 81.9319C92.1815 81.8767 92.2969 81.79 92.3863 81.6797C92.4758 81.5693 92.5366 81.4387 92.5637 81.2992C92.6384 81.0103 92.6347 80.7068 92.5529 80.4199C92.471 80.133 92.3141 79.8731 92.0982 79.6671C91.7537 79.1859 92.1536 79.1046 92.7338 78.9865C93.3837 78.8543 94.2596 78.6761 94.5682 77.8384L94.5787 77.8101C94.7996 77.2132 94.8962 76.9519 95.0754 76.7737C95.2149 76.6349 95.4044 76.5466 95.7415 76.3894C95.9804 76.278 96.2934 76.1319 96.7152 75.9089C97.9261 75.2683 97.5254 74.5297 97.186 73.9042C96.9622 73.4917 96.7651 73.1283 97.0743 72.8746C97.5081 72.5197 97.549 72.8687 97.6086 73.3769C97.6927 74.0932 97.8138 75.1259 99.1235 74.9513C99.4813 74.9041 99.7929 75.0075 100.1 75.1094C100.596 75.2741 101.08 75.4347 101.729 74.9513C101.913 74.8147 102.078 74.6925 102.229 74.5816C103.195 73.8693 103.525 73.6268 103.686 73.0513C103.768 72.7619 103.964 72.6873 104.165 72.6106C104.454 72.5009 104.753 72.3867 104.747 71.6311C104.744 71.1512 105.028 71.1329 105.448 71.1057C105.917 71.0753 106.557 71.0339 107.152 70.3201C107.264 70.1804 107.338 70.0141 107.367 69.8374C107.395 69.6607 107.378 69.4795 107.316 69.3116C107.255 69.1435 107.15 68.9944 107.013 68.8785C106.877 68.7626 106.713 68.6838 106.537 68.65C105.701 68.5798 105.225 68.6103 104.937 68.6287C104.518 68.6556 104.502 68.6566 104.359 68.2785L104.33 68.2029C104.133 67.6862 103.968 67.2535 104.371 66.9599C106.467 65.4379 106.285 64.9077 105.978 64.0172C105.931 63.8823 105.882 63.737 105.837 63.5808C105.507 62.417 103.491 62.7381 102.968 64.2372C102.781 64.7728 102.489 65.0697 102.209 65.3552C101.615 65.9596 101.072 66.5123 101.684 69.1668C101.804 69.6924 101.5 70.3836 101.207 71.0509C101.118 71.252 101.031 71.4509 100.957 71.6425C100.774 72.0172 100.473 72.3224 100.102 72.5127C99.8735 72.6642 99.7807 72.2997 99.651 71.7904C99.4458 70.9844 99.1482 69.8159 98.0747 69.7577C97.3036 69.7155 96.9054 69.9887 96.6673 70.1521C96.4712 70.2867 96.3836 70.3468 96.2858 70.0949C95.9498 69.2815 95.8058 68.4015 95.865 67.5233C95.869 67.4032 96.1518 67.1706 96.5559 66.8382C97.5012 66.0606 99.1101 64.737 99.3676 63.0307C99.5169 62.0339 100.046 61.412 101.001 60.2893C101.194 60.0618 101.405 59.8137 101.634 59.5376C105.724 54.6069 108.391 57.0245 111.681 60.0084C111.836 60.1497 111.994 60.2923 112.153 60.4353C112.275 60.5452 112.367 60.6256 112.44 60.6877C112.579 60.8087 112.639 60.86 112.677 60.9238C112.705 60.9708 112.721 61.0245 112.749 61.1177C112.839 61.4094 112.911 61.7273 112.661 61.9069C112.245 62.2085 111.843 62.029 111.412 61.8361C110.891 61.6037 110.329 61.3522 109.645 61.8993C109.123 62.3165 109.315 62.8669 109.578 63.6224C109.627 63.7624 109.679 63.9116 109.728 64.0662C109.79 64.2577 109.835 64.4356 109.876 64.5986C110.025 65.191 110.124 65.5873 110.8 65.7259C112.949 66.1673 113.062 65.9768 113.392 65.4171C113.59 65.0818 113.867 64.6139 114.706 64.07C115.168 63.771 115.22 63.5294 115.307 63.133C115.368 62.8444 115.449 62.4739 115.718 61.9392C115.829 61.7195 115.93 61.7435 116.443 61.8658C116.744 61.9375 117.187 62.043 117.857 62.1529C118.134 62.1982 118.727 62.0998 119.544 61.9641C120.703 61.7717 122.314 61.5043 124.122 61.4642C125.576 61.4326 125.9 60.3718 126.191 59.4152C126.223 59.3098 126.255 59.2058 126.288 59.1044C126.397 58.7682 126.529 58.5919 126.659 58.4191C126.934 58.0547 127.197 57.7061 127.198 55.9076C127.145 55.3965 127.173 54.8801 127.283 54.3781C127.758 52.9379 128.583 52.4667 128.478 53.753C128.503 54.7572 128.601 55.7582 128.77 56.7484C128.781 56.9974 128.775 57.204 128.77 57.3811C128.758 57.889 128.751 58.1531 129.137 58.4736C129.414 58.7035 129.478 58.6769 129.715 58.4099C130.473 57.5587 130.742 56.4402 130.942 55.61C131.153 54.7371 131.287 54.1829 131.828 54.5928C132.077 54.9268 132.414 55.1856 132.801 55.341C133.188 55.4964 133.609 55.5422 134.021 55.4735C134.546 55.3949 134.336 54.8205 134.068 54.0903C133.845 53.4786 133.581 52.7577 133.676 52.1276C133.759 51.5824 134.108 51.667 134.513 51.7648C134.62 51.7908 134.732 51.8178 134.843 51.834C135.056 51.8836 135.278 51.8884 135.492 51.8479C135.708 51.8074 135.912 51.7227 136.093 51.599C136.273 51.4754 136.425 51.3155 136.541 51.1296C136.656 50.9437 136.732 50.7358 136.762 50.5192C136.761 50.447 136.76 50.3797 136.758 50.3167C136.74 49.6297 136.736 49.4665 137.047 49.2985C137.739 48.9259 139.436 48.8944 140.545 48.8737C140.961 48.866 141.294 48.8597 141.461 48.8377C142.928 48.724 144.355 48.3033 145.649 47.6027C146.188 47.4016 146.756 47.4764 148.021 47.8137C147.64 47.3357 147.335 46.8216 147.102 46.2845ZM120.654 58.1344C119.596 57.8883 118.28 55.5969 118.266 55.5609C117.963 54.9426 117.831 54.255 117.881 53.5686C117.932 52.8821 118.164 52.2215 118.555 51.6545C119.072 50.7829 119.808 49.7071 120.505 48.6873C120.624 48.5144 120.741 48.3431 120.856 48.1745C121.502 47.23 122.167 46.9065 123.115 46.4454C123.789 46.1167 124.609 45.7181 125.667 44.975C126.328 44.5114 126.733 44.7195 127.16 45.4081C127.624 46.1559 128.307 47.8307 125.504 49.4182C122.944 50.8678 122.616 53.46 122.367 55.4281C122.253 56.3259 122.156 57.0939 121.871 57.5644C121.743 57.7644 121.561 57.924 121.345 58.0249C121.129 58.1258 120.89 58.1637 120.654 58.1344ZM123.662 47.2005C122.634 47.6999 122.086 47.9665 121.48 48.9631C121.036 49.6921 120.615 50.2767 120.249 50.7872C119.21 52.2302 118.597 53.0823 119.094 54.9348C119.458 55.6382 119.908 56.2936 120.433 56.8861C120.968 57.6679 121.374 56.1887 121.374 55.3338C121.315 53.7123 121.782 52.1152 122.704 50.7804C123.243 49.7567 124.065 49.2176 124.85 48.7019C125.126 48.5213 125.397 48.3436 125.649 48.1489C125.69 48.1179 125.732 48.0869 125.775 48.0554C126.19 47.7493 126.664 47.3997 126.561 46.515C126.456 45.6003 126.011 45.8842 125.447 46.2455C125.318 46.3284 125.181 46.4155 125.041 46.493C124.496 46.7949 124.046 47.0139 123.662 47.2005ZM111.473 83.4391C112.013 83.4132 112.548 83.3873 112.664 83.3674C112.426 83.0903 112.22 82.9647 112.061 82.8672C111.731 82.6668 111.597 82.5851 111.792 81.5462C111.854 81.2213 111.792 81.1016 111.127 81.1016C109.192 81.1093 108.885 81.6341 108.418 82.4328C108.192 82.8205 107.928 83.2727 107.422 83.7616C107.193 83.9868 107.665 83.8621 108.017 83.769C108.121 83.7416 108.215 83.7167 108.277 83.7046C108.977 83.5484 109.694 83.4785 110.411 83.4966C110.646 83.4789 111.062 83.459 111.473 83.4391ZM164.165 88.165C165.655 86.4194 165.753 85.6577 165.87 84.7459C165.906 84.4708 165.943 84.1818 166.021 83.8482C166.098 83.5163 166.342 83.1013 166.603 82.6553C166.933 82.0926 167.291 81.4805 167.384 80.9231C167.692 79.0782 164.888 79.9275 164.749 79.9798C163.588 80.4095 163.262 81.1128 162.793 82.1259C162.496 82.7703 162.14 83.5403 161.474 84.4448C161.291 84.6926 161.117 84.925 160.95 85.1463C160.053 86.3379 159.399 87.2062 159.168 88.4224C158.953 89.552 159.489 89.9966 160.195 90.121C161.025 90.2683 163.365 89.1083 164.165 88.165ZM161.861 86.17C162.791 85.0112 163.505 83.6956 163.97 82.2854C164.419 80.907 166.44 80.3522 166.155 81.23C166.001 81.7143 165.842 81.9585 165.677 82.2124C165.486 82.5062 165.286 82.8131 165.074 83.5204C164.874 84.5911 164.492 85.6195 163.943 86.5604C163.157 87.6501 162.027 88.4422 160.735 88.8081C160.416 88.9326 160.189 88.8623 160.26 88.4091C160.259 87.9378 160.966 87.1666 161.457 86.6307C161.634 86.4366 161.785 86.2769 161.861 86.17ZM81.9697 64.5216C81.7154 65.2047 81.1242 66.7927 85.0255 67.1604C87.0081 67.1224 88.8008 64.4491 87.5316 63.0526C87.0183 62.5343 86.4604 62.0622 85.8643 61.6418C85.7315 61.5266 85.5638 61.4594 85.3882 61.4512C85.2126 61.4429 85.0393 61.494 84.8963 61.5962C84.586 61.79 84.3833 61.9517 84.2413 62.065C84.0889 62.1868 84.0062 62.2527 83.9361 62.2417C83.8538 62.2287 83.7883 62.1106 83.6458 61.854L83.6356 61.8356C83.4235 61.5609 83.1162 61.3756 82.7742 61.3161C82.4322 61.2567 82.0803 61.3275 81.7879 61.5145C80.1963 62.6604 81.2643 63.5501 81.7955 63.9925C81.9288 64.1037 82.0284 64.1865 82.0434 64.2382C82.0575 64.2858 82.0202 64.3858 81.9697 64.5216ZM85.0117 62.7116C85.2138 62.5657 85.2765 62.5205 85.4055 62.6393C85.6621 62.8785 85.8774 63.0734 86.0582 63.2363C86.5887 63.7146 86.8135 63.9171 86.8546 64.1518C86.8848 64.3245 86.8158 64.5144 86.6962 64.8439C86.6761 64.8995 86.6528 64.9636 86.63 65.0276C86.4998 65.4032 86.2438 65.7223 85.9054 65.9309C85.5669 66.1394 85.1668 66.2247 84.7728 66.1724C84.6103 66.1314 84.4583 66.0938 84.3165 66.0588C82.7401 65.6697 82.43 65.5931 83.0628 64.4234C83.3848 63.8287 82.7075 63.2122 82.2591 63.0621C81.4563 62.7904 82.2752 62.2071 82.4405 62.2071C82.7089 62.2071 82.8391 62.4467 82.9783 62.7026C83.2417 63.187 83.5369 63.7301 84.8602 62.8189C84.9183 62.779 84.9684 62.7429 85.0117 62.7116ZM114.494 119.024C114.439 118.405 114.758 117.819 115.009 117.355C115.121 117.149 115.219 116.967 115.267 116.817C115.318 116.655 115.251 116.448 115.178 116.226C115.007 115.704 114.809 115.099 116.065 114.808C116.636 114.676 116.931 114.346 117.543 113.666C117.696 113.496 117.869 113.303 118.07 113.086C118.557 112.564 119.97 112.127 120.16 112.905C120.302 113.679 120.192 114.478 119.847 115.185C119.752 115.445 119.681 115.703 119.613 115.951C119.452 116.539 119.304 117.073 118.891 117.453C118.436 117.872 118.174 118.22 117.941 118.529C117.476 119.147 117.129 119.607 115.591 120.158C115.295 120.263 114.501 120.349 114.494 119.024ZM118.997 114.004C118.897 113.764 118.763 113.924 118.513 114.223C118.141 114.67 117.512 115.423 116.356 115.619C116.012 115.679 116.094 116.08 116.209 116.411C116.419 117.016 116.109 117.554 115.839 118.025C115.667 118.324 115.51 118.595 115.511 118.841C115.582 118.841 115.653 118.827 115.72 118.8C116.576 118.279 117.311 117.582 117.876 116.755C118.443 115.929 118.822 114.99 118.997 114.004ZM92.852 72.7455C92.7304 72.4926 92.5572 72.268 92.3433 72.0861C91.9538 71.7858 92.0267 71.3944 92.1054 70.9709C92.1482 70.7406 92.1927 70.5008 92.1657 70.2612C92.0688 69.4746 91.1967 68.9882 89.6653 71.0896C89.4529 71.3776 89.3546 71.7342 89.3898 72.0903C89.4248 72.4465 89.5907 72.7771 89.8553 73.0181C90.1002 73.3947 90.1149 73.4517 90.1522 73.5958C90.1918 73.7481 90.2564 73.9974 90.6438 74.8231C90.6805 74.8773 90.7032 74.9399 90.7097 75.005C90.7162 75.0703 90.7063 75.136 90.6808 75.1964C90.5195 75.643 90.4145 76.108 90.3683 76.5806C90.2508 77.1117 90.1159 77.7206 90.6533 77.7206C91.1026 77.7282 93.0615 77.2703 93.4083 76.6832C94.5911 74.6827 94.1434 74.4863 93.6482 74.2691C93.3691 74.1466 93.0748 74.0175 93.0492 73.5548C93.0408 73.2742 92.9736 72.9986 92.852 72.7455ZM90.3265 71.7137C90.4881 71.2679 90.7772 70.8794 91.1577 70.5965C91.4034 70.4195 91.3757 70.8326 91.3595 71.0735C91.353 71.1699 91.3484 71.2387 91.3639 71.2311C91.2524 71.8702 91.5297 72.2386 91.8071 72.6071C92.0429 72.9206 92.2789 73.2341 92.2759 73.7144C92.2713 74.3937 92.6346 74.6852 92.8847 74.8859C93.0534 75.0212 93.1706 75.1153 93.0891 75.2591C92.8907 75.6098 92.8035 75.8447 92.7429 76.0082C92.6688 76.2079 92.6343 76.3009 92.4849 76.3678C92.3186 76.4431 92.1649 76.5168 92.0254 76.5837C91.6036 76.7861 91.3109 76.9265 91.1938 76.8608C91.019 76.7639 91.1355 76.3683 91.2849 75.8606C91.3596 75.6066 91.4427 75.3244 91.5016 75.0378C91.5384 74.8638 91.4153 74.6124 91.2656 74.3069C91.1367 74.0436 90.9882 73.7402 90.905 73.4114C90.819 73.0628 90.6903 72.8177 90.5758 72.5997C90.4264 72.315 90.3012 72.0764 90.3265 71.7137ZM89.1874 76.6813C88.8578 77.4698 86.061 76.8713 86.6652 75.167C87.8945 71.7033 90.7112 73.0304 89.1874 76.6813ZM87.4936 75.49C87.3425 75.9973 88.0208 76.211 88.4512 76.06C89.3043 74.0859 88.265 72.8974 87.4936 75.49ZM147.744 104.968C146.355 105.603 146.345 105.608 147.448 108.005C147.745 108.649 148.324 108.624 148.967 108.596C149.482 108.573 150.038 108.549 150.521 108.866C150.603 108.921 150.699 108.954 150.798 108.959C150.897 108.965 150.995 108.943 151.083 108.898C151.17 108.851 151.244 108.783 151.296 108.698C151.348 108.614 151.375 108.517 151.376 108.418C151.395 108.207 151.511 107.92 151.648 107.582C152.069 106.542 152.685 105.015 151.281 103.725C150.588 103.091 150.222 103.403 149.726 103.825C149.521 103.999 149.291 104.194 149.007 104.348C148.502 104.621 148.083 104.813 147.744 104.968ZM148.39 105.698C149.633 105.123 149.933 104.984 150.375 104.477C150.67 104.138 151.441 105.194 150.804 106.895C150.605 107.424 150.552 107.716 150.524 107.863C150.509 107.946 150.502 107.983 150.483 107.991C150.467 107.999 150.442 107.986 150.398 107.963C150.261 107.894 149.933 107.725 149.074 107.729C148.947 107.73 148.843 107.733 148.756 107.736C148.547 107.742 148.439 107.746 148.36 107.7C148.276 107.65 148.224 107.544 148.119 107.324C148.081 107.246 148.036 107.153 147.981 107.043C147.963 107.007 147.945 106.972 147.928 106.939L147.887 106.859L147.835 106.758C147.554 106.221 147.498 106.112 147.836 105.956C148.034 105.862 148.215 105.78 148.378 105.704L148.39 105.698ZM145.864 108.877C145.869 109.842 144.915 109.635 144.295 109.5C144.198 109.479 144.11 109.459 144.035 109.447C143.057 109.269 142.743 108.861 141.998 107.611C141.637 107.006 141.184 106.591 140.721 106.169C140.119 105.619 139.5 105.054 139.053 104.035C139.028 103.98 139.003 103.923 138.976 103.866C138.697 103.252 138.353 102.498 138.788 102.029C138.904 101.92 139.049 101.847 139.207 101.819C139.364 101.792 139.525 101.812 139.671 101.875C140.039 102.064 140.345 102.219 140.602 102.349C141.506 102.807 141.802 102.958 142.037 103.176C142.152 103.281 142.252 103.403 142.401 103.583C142.509 103.714 142.641 103.876 142.823 104.084C143.608 104.984 144.096 105.368 144.438 105.637C145.105 106.163 145.209 106.245 145.864 108.877ZM143.668 106.207C143.111 105.882 142.697 105.371 142.293 104.874C141.907 104.398 141.531 103.935 141.05 103.659C139.544 102.796 139.55 102.806 139.759 103.14C139.815 103.23 139.885 103.343 139.945 103.469C140.412 104.465 141.098 105.044 141.612 105.479C141.852 105.681 142.054 105.852 142.179 106.019C142.7 106.71 143.045 107.233 143.303 107.626C143.904 108.538 144.038 108.741 144.821 108.689C144.802 108.422 144.668 106.792 143.668 106.207ZM154.443 103.997C154.783 104.619 155.628 104.316 155.765 102.711C155.662 100.829 154.96 100.026 154.413 99.4002C154.029 98.9595 153.721 98.6067 153.752 98.0268C153.811 96.96 153.655 96.5819 153.205 96.6104C152.755 96.6389 152.266 96.9096 151.908 98.119C151.824 98.3707 151.794 98.6377 151.822 98.9018C151.85 99.1659 151.935 99.4209 152.07 99.6494C152.144 100.057 152.186 100.47 152.197 100.884C152.296 101.846 152.8 102.247 153.671 102.762C153.927 102.914 154.075 103.231 154.239 103.581C154.302 103.717 154.368 103.859 154.443 103.997ZM153.651 99.7858C154.116 100.368 154.689 101.083 154.903 102.568L154.9 102.735C154.901 102.879 154.901 102.913 154.89 102.941C154.888 102.949 154.884 102.957 154.878 102.968C154.876 102.972 154.874 102.976 154.871 102.981C154.872 102.978 154.87 102.984 154.871 102.981C154.867 102.991 154.857 103.011 154.851 103.026C154.739 102.954 154.66 102.84 154.63 102.71C154.524 102.279 154.234 102.11 153.93 101.931C153.503 101.681 153.048 101.415 153.027 100.385C153.009 99.448 152.831 99.1489 152.709 98.9448C152.606 98.7711 152.543 98.6662 152.655 98.2947C152.868 97.586 153.017 97.8577 152.989 98.1114C152.909 98.8592 153.237 99.2698 153.651 99.7858ZM147.094 111.865C146.049 111.259 145.896 110.114 146.606 109.784C147.376 109.429 147.873 109.509 149.706 109.804C149.959 109.845 150.238 109.889 150.547 109.938C152.427 110.233 152.851 111.925 151.606 112.29C150.865 112.534 150.082 112.622 149.305 112.549C148.529 112.475 147.776 112.244 147.094 111.865ZM151.16 111.175C150.998 110.751 150.511 110.687 149.323 110.531C149.114 110.503 148.884 110.473 148.63 110.437C146.031 110.072 147.205 111.334 148.42 111.59C149.102 111.733 151.437 111.893 151.16 111.175ZM156.443 107.641C156.537 107.241 156.608 106.933 156.399 106.68C156.247 106.496 154.466 105.297 153.912 105.979C153.828 106.081 153.752 106.171 153.682 106.252C153.344 106.646 153.17 106.851 153.209 107.339C153.215 107.404 153.219 107.479 153.225 107.563C153.28 108.353 153.382 109.819 154.045 109.589C154.053 109.586 154.092 109.584 154.154 109.578C154.605 109.539 156.287 109.393 156.304 108.558C156.311 108.205 156.381 107.903 156.443 107.641ZM154.508 106.595C155.464 107.162 155.467 107.18 155.491 107.345C155.648 108.423 155.116 108.715 154.646 108.752C154.16 108.791 154.14 108.651 154.086 108.278C154.073 108.197 154.06 108.103 154.039 107.998C153.981 107.759 153.949 107.514 153.944 107.267C153.953 107.026 154.294 106.469 154.508 106.595ZM149.428 119.553C149.421 119.949 149.403 120.326 149.386 120.682C149.288 122.74 149.222 124.12 151.601 124.638C152.719 124.881 153.369 124.365 154.021 123.846C154.508 123.459 154.995 123.073 155.678 123C157.202 122.84 157.992 122.449 158.466 122.216C158.933 121.985 159.093 121.906 159.345 122.348C160.653 124.634 161.503 125.014 162.255 125.349C162.653 125.527 163.023 125.692 163.419 126.122C163.522 126.233 163.639 126.38 163.768 126.543C164.182 127.063 164.733 127.753 165.398 128.028C166.212 128.363 166.738 127.413 167.318 126.328C168.21 124.65 168.979 122.907 169.616 121.117C170.387 118.705 169.901 117.919 169.134 116.909C168.372 115.903 167.682 114.843 167.07 113.739C165.299 110.858 164.27 110.706 161.378 110.28C159.478 110.044 157.542 110.286 155.76 110.984C155.052 111.257 154.572 111.733 154.104 112.197C153.855 112.444 153.609 112.687 153.334 112.894C152.611 113.402 151.819 113.801 150.982 114.08C148.309 115.062 148.564 116.436 148.803 117.278C149.065 118.021 149.274 118.781 149.428 119.553ZM149.952 116.442C150.1 115.813 150.64 115.585 151.456 115.241C152.386 114.848 153.673 114.306 155.146 112.847C156.74 111.265 158.922 111.137 161.131 111.422C164.513 111.854 164.938 112.592 166.574 115.437C166.818 115.858 167.086 116.327 167.396 116.846C167.571 117.141 167.759 117.377 167.935 117.6C168.721 118.591 169.273 119.287 167.426 123.596C165.745 127.519 165.525 127.235 164.665 126.127C164.553 125.982 164.429 125.824 164.291 125.659C163.529 124.751 162.943 124.433 162.442 124.161C162.152 124.005 161.892 123.863 161.643 123.633C161.044 123.078 160.67 122.521 160.36 122.059C159.836 121.275 159.495 120.767 158.551 121.014C157.919 121.179 157.583 121.327 157.311 121.446C157.038 121.565 156.83 121.656 156.453 121.71C155.111 121.854 153.824 122.322 152.704 123.075C152.028 123.58 150.77 123.493 150.715 122.481C150.699 122.177 150.706 121.962 150.71 121.818C150.715 121.655 150.718 121.584 150.68 121.58C150.902 119.294 150.482 118.41 150.177 117.768C149.972 117.335 149.818 117.012 149.952 116.442ZM166.452 110.099C166.087 110.529 165.376 110.402 164.892 110.299C163.545 109.93 162.252 109.385 161.047 108.677C160.658 108.502 160.322 108.403 160.02 108.314C159.298 108.103 158.761 107.946 158.113 106.911C157.015 105.156 156.996 105 156.996 104.681C156.997 104.61 157.013 104.541 157.042 104.477C157.072 104.414 157.114 104.358 157.167 104.311C157.22 104.265 157.282 104.23 157.349 104.209C157.415 104.189 157.487 104.182 157.556 104.19C159.182 104.381 160.776 104.782 162.298 105.383C163.764 105.857 167.554 108.806 166.452 110.099ZM164.915 108.594C164.434 107.887 163.78 107.317 163.015 106.937C163.014 106.937 162.99 106.925 162.949 106.906C162.352 106.645 157.905 104.702 158.422 105.593C159.053 106.678 159.201 106.808 159.634 106.991C161.568 107.81 162.259 108.188 162.722 108.443C163.233 108.723 163.471 108.853 164.789 109.254C165.56 109.489 165.315 109.125 164.915 108.594ZM173.625 127.032C174.695 126.102 174.906 124.674 175.156 122.979C175.312 121.918 175.941 122.065 176.466 122.439C177.496 123.565 178.101 125.014 178.176 126.537C178.189 127.446 177.741 127.816 176.779 128.607C176.335 128.973 175.779 129.43 175.109 130.073C174.3 130.849 173.209 131.166 172.652 130.518C172.372 129.916 172.316 129.234 172.495 128.595C172.673 127.957 173.074 127.402 173.625 127.032ZM177.075 126.506C177.238 125.53 176.382 123.419 176.063 123.501C175.921 123.537 175.897 123.784 175.858 124.175C175.802 124.747 175.714 125.63 175.18 126.608C174.8 127.23 174.318 127.785 173.755 128.247C173.224 128.733 173.194 129.983 173.755 129.742C174.362 129.449 174.897 129.027 175.325 128.507C175.551 128.288 175.78 128.11 175.996 127.941C176.515 127.537 176.959 127.196 177.075 126.506Z" fill="#4952FF"/>
</g>
<g id="icon">
<path id="vector_2" d="M36.4831 73.3277C36.7443 73.5177 37.2621 73.0589 37.9024 72.2542C39.829 69.8327 45.9109 59.3475 47.0015 55.8363C49.6368 47.35 45.4207 39.445 36.5353 39.3187C28.277 39.1999 23.1546 46.8693 25.8858 55.842C26.8349 58.9599 33.8449 71.4116 36.4831 73.3277ZM30.861 48.4482C31.0022 47.1298 31.6127 45.9061 32.5812 45.0003C33.5496 44.0947 34.8114 43.5675 36.1363 43.5148C36.9839 43.4055 37.8454 43.4927 38.6539 43.7697C39.4625 44.0467 40.1964 44.5062 40.7988 45.1124C41.4013 45.7186 41.8561 46.4554 42.1282 47.2656C42.4002 48.0759 42.482 48.9378 42.3674 49.7848C42.2521 51.2553 41.6037 52.6331 40.5441 53.6592C39.4845 54.6854 38.0867 55.2893 36.6132 55.3575C35.7447 55.3925 34.8798 55.2271 34.0854 54.8742C33.291 54.5212 32.5886 53.9901 32.0323 53.3221C31.4762 52.654 31.0813 51.8669 30.8781 51.0217C30.675 50.1766 30.6691 49.296 30.861 48.4482Z" fill="#4952FF"/>
</g>
<g id="icon 2">
<path id="vector_3" d="M140.587 52.4647C142.437 56.9016 144.698 61.1564 147.338 65.1738C148.453 66.8952 150.548 69.9713 151.845 71.5616C153.065 73.0579 153.807 73.777 154.576 72.9068C156.019 71.2747 159.506 65.437 160.59 63.5968C167.588 51.7057 167.569 49.8085 168.06 45.7824C168.938 38.5805 163.008 29.7683 153.62 30.135C143.915 30.5121 135.19 39.8573 140.587 52.4647ZM154.78 35.8397C157.801 36.1808 160.787 38.3962 161.009 43.1386C161.238 48.0225 154.802 52.8381 149.587 49.2632C143.548 45.1203 147.027 34.9638 154.78 35.8397Z" fill="#4952FF"/>
</g>
<g id="icon 3">
<path id="vector_4" d="M139.75 76.474C139.718 80.598 136.615 85.5475 134.377 89.0292C132.348 92.1813 132.129 92.7532 131.362 92.036C129.805 90.5768 125.432 83.771 124.226 79.971C122.332 74.0003 126.838 68.6764 131.875 68.6508C132.911 68.6314 133.939 68.8201 134.9 69.2058C135.861 69.5914 136.734 70.166 137.468 70.8957C138.203 71.6254 138.784 72.4952 139.175 73.4534C139.568 74.4117 139.762 75.4388 139.75 76.474ZM134.955 73.3837C134.486 72.8122 133.859 72.3907 133.152 72.1712C132.445 71.9518 131.69 71.944 130.979 72.1487C130.077 72.3687 129.281 72.8981 128.729 73.6446C128.176 74.3911 127.903 75.3076 127.957 76.2346C128.01 77.1617 128.387 78.0407 129.022 78.7186C129.656 79.3966 130.508 79.8307 131.43 79.9454C134.592 80.4802 137.481 76.2071 134.955 73.3837Z" fill="#4952FF"/>
</g>
<g id="icon 4">
<path id="vector_5" d="M59.7219 102.716C61.2495 105.376 63.8401 109.22 63.9874 109.39C64.8015 110.326 65.3516 109.381 66.0318 108.316C68.7668 104.034 73.5833 97.3219 73.7078 91.9582C73.7743 89.6693 72.9618 87.4418 71.437 85.7335C69.9123 84.0251 67.7912 82.9654 65.5095 82.7723C63.2278 82.5793 60.9588 83.2673 59.1686 84.6951C57.3784 86.1229 56.203 88.1821 55.8839 90.4496C56.1185 90.215 54.3743 93.4222 59.7219 102.716ZM66.35 86.8206C67.2707 87.1587 68.058 87.7842 68.5956 88.6046C69.1331 89.425 69.3922 90.3966 69.3346 91.3758C69.2769 92.3549 68.9055 93.2894 68.2755 94.041C67.6454 94.7927 66.7901 95.3215 65.8361 95.5492C61.8033 96.5942 59.6611 93.6996 59.701 90.8942C59.7409 88.0889 62.8208 85.6721 66.35 86.8206Z" fill="#4952FF"/>
</g>
</g>
</g>
</svg>
