<svg width="24" height="24" viewBox="0 0 24 24" fill="none" xmlns="http://www.w3.org/2000/svg">
<g id="Bag-Dollar--Streamline-Plump.svg">
<g id="bag-dollar--bag-payment-cash-money-finance">
<path id="Subtract" fill-rule="evenodd" clip-rule="evenodd" d="M7.5293 1.63158C8.42681 1.48908 9.95209 1.3125 12 1.3125C14.0479 1.3125 15.5732 1.48908 16.4707 1.63158C17.3563 1.7722 17.9375 2.54189 17.9375 3.38284C17.9375 4.56228 17.4401 5.62479 16.6446 6.37301C18.2561 7.27741 19.6312 8.59173 20.6574 10.0638C21.9166 11.8702 22.6875 13.968 22.6875 15.9188C22.6875 18.4496 21.3905 20.1871 19.387 21.2488C17.4323 22.2847 14.8028 22.6875 12 22.6875C9.19722 22.6875 6.56771 22.2847 4.61298 21.2488C2.6095 20.1871 1.3125 18.4496 1.3125 15.9188C1.3125 13.968 2.08342 11.8702 3.34265 10.0638C4.36884 8.59173 5.74387 7.27741 7.35536 6.37301C6.55992 5.62479 6.0625 4.56228 6.0625 3.38284C6.0625 2.54189 6.64366 1.7722 7.5293 1.63158ZM12 8.2C11.4754 8.20005 11.05 8.62532 11.05 9.15L11.0501 9.53594C10.4662 9.60956 9.86758 9.77026 9.36456 10.0796C8.69443 10.4916 8.2001 11.1743 8.2001 12.1191C8.2001 12.6292 8.34801 13.0877 8.63643 13.4703C8.9135 13.8378 9.27877 14.0808 9.63227 14.2491C10.2834 14.5592 11.1013 14.705 11.7612 14.8227L11.8331 14.8356C12.5868 14.9701 13.1568 15.0792 13.551 15.267C13.7414 15.3577 13.9001 15.4577 13.9001 15.6816C13.9001 15.8761 13.8023 16.0031 13.6404 16.1027C13.3923 16.2552 12.9747 16.3725 12.4173 16.4072C11.8761 16.4408 11.287 16.3913 10.7656 16.2854C10.2233 16.1752 9.8473 16.023 9.67868 15.9101C9.24272 15.6182 8.65268 15.7349 8.36074 16.1708C8.06881 16.6068 8.18556 17.1969 8.62152 17.4888C9.08773 17.801 9.74152 18.0161 10.3872 18.1473C10.6006 18.1907 10.8229 18.2268 11.0501 18.2545L11.0501 18.65C11.0501 19.1747 11.4755 19.6 12.0002 19.6C12.5249 19.6 12.9502 19.1746 12.9501 18.65L12.9501 18.2648C13.5341 18.1912 14.1327 18.0305 14.6356 17.7212C15.3058 17.3091 15.8001 16.6264 15.8001 15.6816C15.8001 15.1714 15.6522 14.713 15.3638 14.3304C15.0867 13.9629 14.7214 13.7199 14.3679 13.5515C13.7168 13.2415 12.8989 13.0956 12.239 12.978C12.1433 12.9609 12.0462 12.9446 11.9486 12.9282C11.4392 12.8427 10.9121 12.7542 10.4492 12.5337C10.2552 12.4413 10.1001 12.3419 10.1001 12.1191C10.1001 11.9246 10.1979 11.7976 10.3598 11.698C10.6079 11.5455 11.0256 11.4282 11.583 11.3936C12.1241 11.3599 12.7132 11.4094 13.2347 11.5153C13.7769 11.6255 14.1529 11.7777 14.3215 11.8906C14.7575 12.1825 15.3475 12.0658 15.6395 11.6298C15.9314 11.1939 15.8146 10.6038 15.3787 10.3119C14.9125 9.99968 14.2586 9.78455 13.613 9.65336C13.3996 9.61004 13.1773 9.57384 12.9501 9.5462L12.95 9.14995C12.95 8.62527 12.5247 8.19995 12 8.2Z" fill="#B9B9B9"/>
</g>
</g>
</svg>
